<svg xmlns="http://www.w3.org/2000/svg" viewBox="0 0 911.28 530.19"><defs><style>.cls-1{fill:#e5edeb;}.cls-2{fill:#4d7bcb;}.cls-3{fill:#ffee9b;}.cls-4{fill:#fff7cf;}.cls-5{fill:#5b007c;}.cls-6{fill:#3f3c43;}.cls-7{fill:#f7b28b;}.cls-8{fill:#54688b;}.cls-9{fill:#002b32;}.cls-10{fill:#fd5e5a;}.cls-11{fill:#fc7575;}.cls-12{fill:#383d43;}.cls-13{fill:#3a556e;}.cls-14{fill:#3a1425;}.cls-15{fill:#691c15;}.cls-16{fill:#1d1b22;}.cls-17{fill:#e88c66;}.cls-18{fill:#393644;}.cls-19{fill:#e06633;}.cls-20{fill:#ffdec9;}.cls-21{fill:#fff;}.cls-22{fill:#2e0a29;}.cls-23{fill:#172866;}.cls-24{fill:#1b2b80;}.cls-25{fill:#2f499f;}.cls-26{fill:#023135;}.cls-27{fill:#7095b9;}.cls-28{fill:#0f1d5b;}.cls-29{fill:#375866;}.cls-30{fill:#1a2a63;}.cls-31{fill:#d24307;}.cls-32{fill:#99c8f2;}.cls-33{fill:#96c7f6;}.cls-34{fill:#c0ddfa;}.cls-35{fill:#abd2f8;}.cls-36{fill:#1e3340;}.cls-37{fill:#381a3f;}.cls-38{fill:#653870;}.cls-39{fill:#333643;}.cls-40{fill:#26253a;}.cls-41{fill:#4c5063;}.cls-42{fill:#31003d;}.cls-43{fill:#1b2e96;}.cls-44{fill:#353535;}.cls-45{fill:#696969;}.cls-46{fill:#7c8bde;}.cls-47{fill:#460e02;}.cls-48{fill:#ea5353;}.cls-49{fill:#ee66b2;}.cls-50{fill:#be2703;}.cls-51{fill:#8c1c03;}.cls-52{fill:#ff8d8d;}.cls-53{fill:#4f005e;}.cls-54{fill:#42004a;}.cls-55{fill:#6a0084;}.cls-56{fill:#a02103;}.cls-57{fill:#9e9e9e;}.cls-58{fill:#7d87b7;}.cls-59{fill:#979fc5;}.cls-60{fill:#b8b8b8;}.cls-61{fill:#61567c;}.cls-62{fill:#2d1175;}.cls-63{fill:#b96e16;}.cls-64{fill:#fabe78;}.cls-65{fill:#5d68a7;}.cls-66{fill:#f98a8a;}.cls-67{fill:#ea7373;}.cls-68{fill:#d86666;}.cls-69{fill:#94bbff;}.cls-70{fill:#777caa;}.cls-71{fill:#2b3278;}.cls-72{fill:#e3e4ff;}.cls-73{fill:#3e2720;}.cls-74{fill:#bbdfff;}.cls-75{fill:#4083bf;}.cls-76{fill:#6188cb;}.cls-77{fill:#2a5780;}.cls-78{fill:#2c4053;}.cls-79{fill:#8cb5d9;}.cls-80{fill:#d86b47;}</style></defs><title>img-1</title><g id="Layer_2" data-name="Layer 2"><g id="_Layer_" data-name="&lt;Layer&gt;"><path class="cls-1" d="M82.34,506.85S214.92,293.48,458.47,244.36C587.85,218.27,642.61,110.05,741.53,93.67S872.64,223.21,889.89,335.12s-9.3,175.67-9.3,175.67Z"/><path class="cls-2" d="M262.85,364.19c2,.78,3.2,1.38,3.2,1.38A80.46,80.46,0,0,0,256,353.26c-6.22-6.22-5.37-7.34-13-6s-11.53-2.1-13.1-2.1c-.79,0-1.78,3.4-3,6.6a48.14,48.14,0,0,0-7.54,3.5c-1.76-1.82-3-4.07-5.93-4.07-2.72,0-3.24,5.31-4.78,9.6a60.7,60.7,0,0,0-5.77,3.61c0-3.91,4.53-13.47,4.53-13.47s-16.25,5.24-16.25,8.12,10.75,7.86,6,7.86-10-7.6-10-7.6-8.45,4.46-6.84,9.43-3.62,6.77-5.33,8.49h0c-4,1.42-9,4.26-11.22,6.44-3.67,3.66,6.73,25.23,4,27.94s-8.21-21-8.21-23.23c0-1.31-1.17-1.42-2.69-.37,4.4-24.34,11.22-45.37,21.84-56,4.17-4.34,9.23-7,13-9.23l.15-.09c-.79,1.26-1.47,3.52-1.47,7.56,0,9.56,24.61,12.72,21,9.07s-7.73-15-5.77-15,5.24,11.92,10.48,14.41,11.4-4.2,11.4-4.2-16.44-12.37-14.8-14,15.85,14.93,19.78,16.5,11.13-6,11.13-6-27.11-14.54-26.35-17,25.17,15.46,29,14.28,7.07-8.78,7.07-8.78-27.5-9.3-26.46-11.53,23.06,9.83,26.2,9.17,1.57-9.69,1.57-11.26-17-3.87-18.6-5.5,16.64,3,17.95,3,2.75-1.57,1.44-4.59-2.49-13-2.49-13c-1.57,0-8.51-5.5-9.69-6.68s-5.63,9.3-7.34,9.3,5-9.44,5-11.66-4.19-4.19-7.6-4.19-8.64,22.74-10.21,22.74,5.5-23.27,4.45-24.32-4.06-2.62-10.35-1.7-2.75,27.51-5,29.74,0-28.17,0-28.95-7.86,1.31-10.61,4.06,2,28.42,0,30.39-3.53-24.5-3.53-27.25-2.49-3-9.57,5.9a9.24,9.24,0,0,0-1.8,7.78c-11.14,4.92-8.92,22.75-4.09,27.58a10.61,10.61,0,0,0,7.73,3.06c-10.67,6.29-17.19,10.57-24.45,27.2,0-5.63-.63-17.83-3.67-20.87s3.67-1.4,3.67-4.54-.35-15.19-1.75-16.59-5.06,9.6-7.33,7.33,6.46-9.08,6.46-9.95-5.07-17.29-6.29-17.29-.35,7.16-3.84,8.91,1.92-10.13,1.92-13.8-3.58-4.46-7.69-8.56-8.73-11.35-8.73-11.35a142.06,142.06,0,0,0,8.91,22.7c5.1,9.88,6.48,46.61,6.62,50.77a.65.65,0,0,0-.16.4c-.3,21.53-.59,40.28-.86,56.63a6.39,6.39,0,0,0-.05,2.9c0,.34,0,.68,0,1-.39,2.6-.76,5.27-1.11,8-1.19-3.55-2-6.17-2-6.17s-.67.71-1.63,1.9c-.53-3.16-1.69-5.61-3.63-6.36,0,0-.94,1-2.34,2.29C141.79,375.49,140.75,357,139,346a34.38,34.38,0,0,0-1.66-6.67,13,13,0,0,0,5.17-1.43c7.37-3.46-1.35-28.4-2.51-23.55s-8,12.88-8.92,11,6.81-9.37,6.35-15.34-8.39-9.51-8.39-9.51S127,320.85,125,319.86s4.32-20.73,3.75-25.1-9.69-8.59-9.69-8.59,1.09,31.48-1.18,31.64.51-29.93-2.12-33.18-10-3.67-10-3.67,5.3,30,3.11,29.75-2.88-25.85-4.81-28.65-8.18,2-9.39,2.55,4.71,17.8,4.19,20-5.22-17.18-5.81-18.44-2.46-2.1-4.19.26S80,293.49,80,293.49c.71,1.52-.38,10.22-.76,11.78S89,307.37,89.74,309s-9.52-1.41-11.24-.6-1.33,5.56.22,8.86,21.44.15,22.15,1.67S80.45,322,80.12,323.41s-.18,4.88,3.38,10.63,22.44-7.27,25.16-5.92S87,338.28,86.36,338.57s4.57,7.13,7.93,8.8,21-12.17,23.42-11-17.27,12.27-19.39,13.26-1.2,3.5,8.87,7.12a6.68,6.68,0,0,0,6.82-1.06c8.47,8.64,20.52,1.1,22.85-5.2,1.17,9.58,1.95,23,2.45,38.08-2.16-3.69-6.57-7.86-8.7-5.73-2.88,2.88-5.9,15.33-9.17,12.05s8.12-11.79,6.81-16.77-5.74-9.26-7.41-7.59-1.24,18.6-3.33,16.5,3.11-19,1.57-20.5-9.34-8.84-12.23-6,3.41,18.43,1.75,16.77-5.76-19-8-21.31-5.86.58-8-1.59c0,0-.43,4.82-1.57,6s11,11.35,9.43,11.35-11.52-9.26-11.52-9.26.78,9.87,3,12.05,13.8,4,13.8,5.94-15-2.44-15-2.44,3,11.35,8.21,12.75,13.45.35,13.45,2.27-10.31.7-10.31.7,2.45,14,9.26,14,7.59-1.22,7.59,1.22-5.32-1.75-5.32,2.62,4.94,13.12,7.51,10.55a13.74,13.74,0,0,0,2.87-4.94,428.77,428.77,0,0,1,10.93,56.38h2.12a431.5,431.5,0,0,0-11.35-58.14c2.29,1.42,8.24,4.92,13.06,6.21a36,36,0,0,0,1.5,13.21c.08,13.77,0,27.14,0,38.72h3.1c0-9.9,0-21.11,0-32.78a9.69,9.69,0,0,0,3.34,2.75,15.33,15.33,0,0,0,1.62.66c-.72,10.1-1.27,20.07-1.68,29.37h2.82c.27-9,.66-18.72,1.29-28.77a16.11,16.11,0,0,0,1.66.17c-.23,11.73-.43,21.09-.6,28.6h2.06c.11-8.46.22-18.25.34-28.65a16.89,16.89,0,0,0,6.28-1.86c-2.6,8.75-4,19.71-4.62,30.51h1.92a162.26,162.26,0,0,1,2.9-25,23.85,23.85,0,0,0,1.9,6.48c4,9.26,21.14,5.24,21.14,5.24-10.48,0-13.45-17.64-10.31-19s1.4,14.67,11.7,17.12,13.45-5.77,13.45-5.77c-8-1.57-22.44-14.75-19.73-17.46s16.07,15.72,21.48,15.72,11.35-14.32,11.35-14.32c-6.63,3.84-28.29-6.29-30.31-9.78s21.4,9.25,30,7.68,8-16.59,8-16.59c-2.71,2.71-26.2.17-28.65-2.27s23.23,1.22,28.12-1.23S222,399.43,222,399.43s-17.81,3.78-22.36,2.55,18.69-3.49,20.79-8.73-3.08-17.39-3.08-17.39c-2.4,2.4-10,.41-13.1.05,8.56-4.09,18.55-8.81,22.83-10.6C234.22,362.31,253.66,361.45,262.85,364.19ZM117.79,352.58a6.35,6.35,0,0,0-1.36.48c3-4.26,4.31-10.2,5.11-9.81C122.9,343.93,120.91,351.89,117.79,352.58Zm21.82,46.14c-3.58,3.14-7.94,6.42-9.27,5.1-1.93-1.93,6.16-6.32,9.14-9.72C139.53,395.62,139.57,397.17,139.61,398.72Zm10,27.59-.33,3.7c-1.85-.24-4.23-3.33-6.25-6l0-2a2.3,2.3,0,0,0,.47-.1,3.47,3.47,0,0,0,1.5-1.17C146.58,423,148.38,424.83,149.58,426.31Zm38.27-129.77a8.55,8.55,0,0,0,.13-1.69c2.44,5.3,6.94,9.68,6.29,10.33C193.16,306.3,187.19,300.21,187.85,296.54Zm-33.24,90.7c.22-25.46.32-46.3.12-50.91,2,2.18.75,13.33,3.82,16.4,1.78,1.78,3.76,2.14,5.21,1.24-.65,1.69-1.32,3.46-2,5.37-.55,1.7-3.49,10.56-4.62,15.68C156.24,378.73,155.4,382.85,154.61,387.24Zm6.91,35.88c-1.84.78-4.72-5.44-7.14-11.85,0-2.56.05-5.12.08-7.65.1-.75.2-1.5.31-2.25C158,410.27,164,422,161.52,423.12Zm20.61-21.31c-4.54,0-2.16-14.66-1.67-21.55,1,.33,2.08.65,3.12.95C183.55,388.62,186.24,401.81,182.13,401.81Zm20.22-25c-1.8,3.06-3.16,12.75-6.25,13.48-2.77.66.74-7.64,2.62-11.73Z"/><path class="cls-2" d="M171.19,504.39H124.07C112.58,501,105,495.24,105,488.67c0-6.17,6.7-11.65,17-15.09H173.2c10.36,3.44,17.06,8.92,17.06,15.09C190.26,495.24,182.68,501,171.19,504.39Z"/><rect class="cls-3" x="323.92" y="2.59" width="278.53" height="273.36" transform="translate(602.46 -323.92) rotate(90)"/><rect class="cls-4" x="331.76" y="5.25" width="262.86" height="268.03"/><rect class="cls-5" x="366.22" y="93.01" width="11.73" height="1"/><rect class="cls-5" x="341.43" y="58.43" width="36.52" height="1"/><rect class="cls-5" x="341.43" y="147.03" width="35.46" height="1"/><rect class="cls-5" x="370.61" y="58.93" width="0.33" height="88.59"/><rect class="cls-5" x="361.61" y="58.93" width="0.33" height="88.59"/><rect class="cls-5" x="355.94" y="58.93" width="0.33" height="88.59"/><rect class="cls-5" x="351.27" y="58.93" width="0.33" height="88.59"/><rect class="cls-5" x="345.1" y="58.93" width="0.33" height="88.59"/><rect class="cls-5" x="377.95" y="54.88" width="150.23" height="0.33"/><rect class="cls-5" x="377.62" y="50.65" width="188.08" height="0.33"/><rect class="cls-5" x="377.7" y="45.32" width="187.99" height="0.33"/><rect class="cls-5" x="376.9" y="186.49" width="82.48" height="0.33"/><rect class="cls-5" x="376.9" y="191.38" width="151.29" height="0.33"/><rect class="cls-5" x="376.9" y="201.39" width="151.29" height="0.33"/><rect class="cls-5" x="376.9" y="207.06" width="186.8" height="0.33"/><rect class="cls-5" x="439.81" y="147.53" width="0.33" height="62.19"/><rect class="cls-5" x="459.21" y="165.87" width="0.33" height="22.68"/><rect class="cls-5" x="472.16" y="150.53" width="0.33" height="43.52"/><rect class="cls-5" x="487.44" y="162.2" width="0.33" height="31.85"/><rect class="cls-5" x="504.56" y="162.2" width="0.33" height="31.85"/><rect class="cls-5" x="528.02" y="152.64" width="0.33" height="50.58"/><rect class="cls-5" x="376.73" y="150.53" width="0.33" height="59.19"/><rect class="cls-5" x="563.53" y="132.19" width="0.33" height="77.53"/><rect class="cls-5" x="486.18" y="35.81" width="1" height="7"/><rect class="cls-5" x="487.87" y="39.15" width="25.64" height="0.33"/><path class="cls-5" d="M488,39.32a2.39,2.39,0,0,1,.53,1.51,4.54,4.54,0,0,0-1.85-1.51,4.87,4.87,0,0,0,1.85-1.52A2.53,2.53,0,0,1,488,39.32Z"/><polygon class="cls-5" points="357.47 177.38 342.44 177.38 342.44 177.04 357.3 177.04 396.77 122.92 397.04 123.11 357.47 177.38"/><rect class="cls-5" x="360.67" y="108.85" width="12.45" height="1"/><rect class="cls-5" x="354" y="114.79" width="19.12" height="1"/><rect class="cls-5" x="348.44" y="127.02" width="26.01" height="1"/><rect class="cls-5" x="377.45" y="42.82" width="1" height="14.01"/><rect class="cls-5" x="565.53" y="42.82" width="0.33" height="14.01"/><rect class="cls-5" x="528.02" y="48.38" width="0.33" height="9.34"/><rect class="cls-5" x="470.09" y="47.49" width="0.33" height="9.34"/><rect class="cls-5" x="343.6" y="172.54" width="6.84" height="2.17"/><rect class="cls-5" x="497" y="33.21" width="16.51" height="2.6"/><rect class="cls-5" x="500.1" y="215.56" width="52.92" height="3.33"/><rect class="cls-5" x="519.69" y="222.23" width="27.96" height="2.67"/><path class="cls-6" d="M377.34,57.27v90.26h5.78v-5.34h-.45v-46h.62V90.84h-.62V62.6h15.46V90.84h-8.34v5.33h32.35v14.68H435v31.34h-44.3v5.34h80.69l16,13.17h17.54l14.84-11.5h8.42V62.6H561v64.92h5.34V57.27Zm63,38.9h25.51v19H440.31Zm0-5.33V62.6H451V90.84Zm25.51,0H453.65V62.6h12.17Zm-65-28.24H435V90.84H400.79Zm24,45.58v-12H435v12Zm15.51,34V117.85h25.51v24.34Zm82.54,1.67h-4.92l-14.84,11.51h-13.8l-16-13.18h-2.12V62.6h51.69Z"/><polygon class="cls-6" points="393.63 162.2 393.63 167.54 459.05 167.54 475.49 180.79 478.83 176.63 460.93 162.2 393.63 162.2"/><rect class="cls-7" x="366.89" y="260.27" width="159.67" height="7.55"/><rect class="cls-7" x="439.81" y="242.73" width="102.56" height="7.68"/><rect class="cls-7" x="357.35" y="11.99" width="137.26" height="5.44"/><path class="cls-2" d="M726.41,271.8c-1.66-.78-11.63,2.18-10.88.59s10.51-2.11,10.15-3.62-1.42-9.94-.73-11.41c0,0-6.9-4.58-8.58-6.86s-3.47-1.48-4-.25-5.12,19.95-5.62,17.85,5.23-18.78,4.06-19.33-7.23-5.18-9.09-2.47S699.13,273.83,697,274s3-28.8,3-28.8-7.1.42-9.64,3.56.13,32.26-2.06,32.11-1.14-30.62-1.14-30.62-8.83,4.09-9.38,8.32,5.57,23.32,3.64,24.28-4-18.75-4-18.75-7.69,3.42-8.13,9.2,7,13,6.15,14.84-7.51-5.93-8.63-10.62-9.56,19.44-2.43,22.79a12.91,12.91,0,0,0,5,1.39,33.41,33.41,0,0,0-1.61,6.45c-1.66,10.66-2.67,28.54-3.27,48.52-1.35-1.28-2.26-2.21-2.26-2.21-1.88.72-3,3.09-3.51,6.15-.93-1.15-1.58-1.84-1.58-1.84s-.76,2.54-1.9,6c-.35-2.63-.7-5.21-1.08-7.72,0-.33,0-.66,0-1a6.14,6.14,0,0,0-.05-2.81c-.26-15.82-.54-34-.83-54.8a.53.53,0,0,0-.16-.38c.14-4,1.47-39.57,6.41-49.13a137.8,137.8,0,0,0,8.62-22,80.41,80.41,0,0,1-8.45,11c-4,4-7.43,4.73-7.43,8.28s5.24,15.05,1.86,13.35-2.54-8.61-3.72-8.61-6.09,15.88-6.09,16.73,8.45,7.43,6.26,9.63-5.75-8.45-7.1-7.1-1.69,13-1.69,16.06,6.51,1.43,3.55,4.39-3.54,14.75-3.55,20.19c-7-16.09-13.34-20.23-23.66-26.31a10.33,10.33,0,0,0,7.48-3c4.67-4.68,6.82-21.94-4-26.69a8.94,8.94,0,0,0-1.75-7.54c-6.84-8.61-9.25-8.36-9.25-5.7s-1.52,28.27-3.42,26.37,2.66-26.75,0-29.41S597,234,597,234.71s2.15,30.17,0,28,1.27-27.88-4.82-28.77-9,.63-10,1.65,5.83,23.53,4.31,23.53-6.59-22-9.89-22-7.35,1.9-7.35,4,6.47,11.29,4.82,11.29-6-10.15-7.1-9-7.86,6.46-9.38,6.46c0,0-1.14,9.63-2.41,12.55s.13,4.43,1.4,4.43S575.54,262.4,574,264s-18,3.8-18,5.32-1.52,10.27,1.52,10.9,24.34-11,25.35-8.87-25.6,11.15-25.6,11.15,3.17,7.36,6.84,8.5,27.3-16.23,28-13.82-25.5,16.48-25.5,16.48,7,7.35,10.77,5.83,17.56-17.56,19.14-16-14.32,13.56-14.32,13.56,6,6.47,11,4.06,8.24-13.95,10.14-13.95-2.05,10.95-5.58,14.49,20.28.47,20.28-8.78c0-3.92-.66-6.09-1.42-7.32l.15.09c3.68,2.2,8.57,4.73,12.61,8.93,10.28,10.31,16.88,30.67,21.14,54.22-1.47-1-2.61-.91-2.61.36,0,2.19-5.32,25.09-7.94,22.48s7.44-23.5,3.89-27c-2.11-2.1-7-4.85-10.86-6.22h0c-1.66-1.66-6.71-3.4-5.16-8.22s-6.62-9.12-6.62-9.12-5.07,7.35-9.63,7.35,5.83-4.82,5.83-7.6-15.72-7.86-15.72-7.86,4.41,9.24,4.38,13a59.56,59.56,0,0,0-5.59-3.49c-1.48-4.16-2-9.29-4.62-9.29-2.8,0-4,2.17-5.74,3.94a46.29,46.29,0,0,0-7.29-3.39c-1.23-3.1-2.18-6.38-2.94-6.38-1.52,0-5.33,3.29-12.68,2s-6.52-.19-12.54,5.83a78.15,78.15,0,0,0-9.77,11.91s1.16-.58,3.1-1.33c8.89-2.66,27.71-1.82,34.66,1.08,4.15,1.73,13.82,6.3,22.09,10.26-3,.35-10.35,2.27-12.67-.05,0,0-5,11.76-3,16.83s24.5,7.27,20.11,8.45-21.63-2.47-21.63-2.47-1.52,12.1,3.21,14.47,29.57-1.18,27.21,1.18-25.1,4.82-27.72,2.2c0,0-.51,14.53,7.78,16s30.94-10.81,29-7.43-22.91,13.18-29.33,9.46c0,0,5.74,13.86,11,13.86s18.16-17.83,20.79-15.21-11.32,15.38-19.1,16.9c0,0,3.05,7.94,13,5.58s8.28-17.92,11.32-16.56.17,18.42-10,18.42c0,0,16.56,3.88,20.45-5.07a23.56,23.56,0,0,0,1.84-6.27c2.63,12.26,3.33,28.88,3.12,42.43H633.67v4.22h2.67l1.83,52.34h43.89l1.84-52.34h2.54v-4.22H670a419,419,0,0,1,12.48-72.82,13.58,13.58,0,0,0,2.78,4.79c2.49,2.48,7.27-6,7.27-10.21s-5.15-.17-5.15-2.54.76-1.18,7.35-1.18,9-13.52,9-13.52-10,1.18-10-.68,7.95-.85,13-2.2,7.94-12.33,7.94-12.33-14.54,4.22-14.54,2.36,11.24-3.63,13.36-5.74,2.87-11.67,2.87-11.67-9.63,9-11.16,9,10.23-9.89,9.13-11-1.52-5.77-1.52-5.77c-2.1,2.1-5.58-.66-7.77,1.54s-6.17,19-7.78,20.62,4.48-13.44,1.69-16.22-10.34,4.27-11.83,5.76,3.55,17.81,1.52,19.84-1.61-14.36-3.23-16-5.89,2.53-7.16,7.35,9.76,13.06,6.59,16.22-6.08-8.87-8.87-11.66c-2.06-2.06-6.34,2-8.43,5.55.49-14.58,1.24-27.58,2.37-36.85,2.26,6.09,13.92,13.39,22.12,5a6.46,6.46,0,0,0,6.59,1c9.75-3.51,10.64-5.93,8.59-6.89S686.14,300,688.47,298.88s19.4,12.23,22.66,10.62,8.26-8.24,7.68-8.52-24.22-8.8-21.59-10.11,20.91,11.29,24.36,5.73,3.59-8.93,3.26-10.28-20.77-2.86-20.08-4.33,20,1.57,21.44-1.62S728.07,272.58,726.41,271.8ZM620.47,258.68a7.93,7.93,0,0,0,.13,1.63c.63,3.55-5.14,9.45-6.22,8.37C613.75,268.05,618.11,263.81,620.47,258.68Zm41.65,121.8a3.46,3.46,0,0,0,1.44,1.14,3.73,3.73,0,0,0,.46.09c0,.65,0,1.29,0,1.94-2,2.6-4.26,5.59-6,5.82l-.33-3.58C658.79,384.46,660.53,382.66,662.12,380.48Zm-7,23.47a14.94,14.94,0,0,0,1.6-.16c1.06,17,1.46,33.17,1.66,46.1H656C655.9,442,655.56,428.09,655.09,404Zm6.22,45.94c-.35-13.33-1.07-29.84-2.27-46.68a13.64,13.64,0,0,0,1.57-.64,9.47,9.47,0,0,0,3.23-2.66c-.13,19.38,0,37.47.08,50ZM645.84,321.08c-.66-1.84-1.3-3.56-1.93-5.19,1.4.87,3.31.52,5-1.2,3-3,1.75-13.76,3.7-15.87-.2,4.46-.1,24.63.11,49.26-.76-4.25-1.58-8.23-2.46-11.83C649.21,331.3,646.36,322.73,645.84,321.08Zm6.77,40.67.3,2.18c0,2.45.05,4.93.07,7.41-2.34,6.2-5.13,12.22-6.91,11.46C643.65,381.76,649.52,370.37,652.61,361.75Zm-24.86-20.42c.47,6.67,2.78,20.85-1.62,20.85-4,0-1.38-12.76-1.4-19.93C625.73,342,626.77,341.65,627.75,341.33Zm-17.67-1.66c1.82,4,5.21,12,2.53,11.36-3-.72-4.3-10.09-6.05-13Zm37.18,62.43a16,16,0,0,0,6.08,1.8c.21,19,.43,36,.55,46h-1.74C652.3,434.78,651.3,415.69,647.26,402.1ZM667,449.89c-.15-13.79-.31-34.25-.18-55.73a34.76,34.76,0,0,0,1.44-12.78c4.66-1.25,10.42-4.63,12.64-6A421.18,421.18,0,0,0,668,449.89Zm9.28-85.77c-1.28,1.28-5.5-1.89-9-4.93,0-1.5.08-3,.12-4.47C670.29,358,678.11,362.25,676.24,364.12ZM689.71,315a6.17,6.17,0,0,0-1.32-.46c-3-.67-4.95-8.38-3.63-9C685.53,305.14,686.82,310.88,689.71,315Z"/><path class="cls-8" d="M911.28,508.56c0,6.15-204,11.15-455.64,11.15S0,514.71,0,508.56,204,497.4,455.64,497.4,911.28,502.4,911.28,508.56Z"/><path class="cls-9" d="M344.72,179.43l4.14-2.8s-10.82-17.79-9.7-33.12c.59-8.09-12.68-20-16.21-18.17-.21-.08-11.78.26-12.81,26.68l-2.46,31,12.5,11.07s7.88-13.5,17.9-7.57,13.09,5.76,13.09,5.76S344.72,182.28,344.72,179.43Z"/><path class="cls-10" d="M380.42,497.23c-2.06-5.52-3.31-13.79-5.93-25-.3-1.32-.73-3.19-1.23-5.47-3.4-.45-6.91,1.24-9.76,2.77,1.12,3,2.63,6.63,2.72,7.94.2,3.16-.76,3.45-.76,3.45,0,5.44,1.7,11.28,2.83,12.41,1.45,1.45,3.06,8.63,4.44,8.63s13,1.28,13,1.28C386.07,500.63,382.49,502.75,380.42,497.23Z"/><path class="cls-11" d="M320.75,494.1c-.61-1.89-1.21-10.14-1.7-21-3,0-6.44-1.09-9.66-.44.24,1.49.81,4.06.81,4.47,0,3.93-1.92,2.47-2.61,5.3-.47,1.87,1.36,5.45,1.36,5.45,2.69,0,3.82,9.58,5.13,12.36.76,1.61,4.2,2.37,8.13,2.37,3.06,0,2.54-.8.27-4.71A19.73,19.73,0,0,1,320.75,494.1Z"/><path class="cls-12" d="M360.42,378.89c-.38-1.67-11.09-92.32-15.09-125.77l-21.61-.75-11.94,49.46,28.41,89.55c-1,8.28-.59,14.95,2,26.26,2.16,9.34,11,40.55,16.34,54.82,2.85-1.54,11.6-4.59,14.7-5.66C361.18,391.94,364.49,396.39,360.42,378.89Z"/><path class="cls-13" d="M322.1,388.15,340.19,286.5,338,251.69h-17.7s-17.74,19.17-21.73,43.45S302,388.58,302,388.58a131.24,131.24,0,0,1-2.55,16.15c-1.85,7.78,1.43,56.62,3.55,69.5a127.82,127.82,0,0,1,16.06-1.12c-1.16-25.92-1.63-66.64.12-70.87C320.32,399.46,321.34,393.62,322.1,388.15Z"/><polygon class="cls-14" points="345.95 256.73 316.67 256.09 320.31 251.69 345.95 251.69 345.95 256.73"/><path class="cls-10" d="M383.46,180.75c.42-2.69.23-4.55-.6-5.38s-.43-1.33-1.21-2.11-2.6-.07-2.83-2.12.32-13.73-1.11-13.45-1.6,15.75-2.19,16.33-1.62,1.21-2-1.2,1.48-3.58.74-4.32-2.88,1.76-3.06,2.64c0,0-1.86,8,0,13.37a41.06,41.06,0,0,1,2.35,11.15h0c.27,7.84-.77,15.87-3.18,28.11-.53,2.71-3,2-4.42,1.21l-6.62,10.27c4.62,5.51,10.79,8.64,13.72,8.28,7.53-.92,6.55-46.76,6.55-46.76,0-.57,0-.24,0-1.11h0c-.1-2.78-.19-5.34-.19-5.68C379.38,187.94,383,183.44,383.46,180.75Z"/><path class="cls-11" d="M381.05,172.93s-6.88,6.72-5.56,8,6.85-5.82,6.85-5.82-6.13,6.25-5,7.34,6.38-4.2,6.38-4.2-5.59,4.81-4.58,5.36,4.58-3.28,4.58-3.28a5.46,5.46,0,0,0,.33-2.3c-.19-.87.12-1.23,0-1.77a5.27,5.27,0,0,0-1.14-1.64C382.52,174.36,382.4,172.43,381.05,172.93Z"/><path class="cls-15" d="M365.39,223.43c.56-1.39,1.37-3.05-.38-4.28-2.41-1.67-2.32-.46-2.32-4.17,0-3.47-.93-4-3.59-4.83-.1-.31-.19-.63-.28-.94-3.34-11.42-14.4-28.42-17.59-29.78s-3.15,6.94-3.15,6.94,20.49,51.92,21.26,52.84L366,225l-.51-1.49Z"/><polygon class="cls-16" points="310.84 489.2 311 502.07 309.57 502.11 307.77 487.44 310.84 489.2"/><path class="cls-17" d="M341.23,179.43s-6.5-5-28.39-.44c-1.08.23-2.7,25.42-2.7,25.42s7.3,39.38,5.24,49.8c0,0,15.41,12.79,33.64,3.88,0,0-2.25-32.83-.57-40.13s5-13.92.34-21.53A85.72,85.72,0,0,1,341.23,179.43Z"/><path class="cls-18" d="M309.89,479.22c1.19,7.2,5.91,21.38,8.67,21.39,3.72,0,3.94-.18,3.92-2.7,2.27,3.91,4.85,5.92,1.79,5.92-3.93,0-10.06.24-10.82-1.37-1.31-2.79-2-13.32-4.71-13.32l.83,13-1.43,0s-2.11-17.85-1.65-19.63C307.13,480.07,309.13,479.66,309.89,479.22Z"/><path class="cls-18" d="M381.88,499.81c2.73,2.55,7.12,2,6.88,4.14,0,0-15.09-.65-16.47-.65s-2.55-8.48-4-9.93-.55,9.93-.55,9.93h-1.49s-1-11.72-2.38-16.28c-1.09-3.62.47-5.15,1.59-6.06C370,489.62,370.46,501.84,381.88,499.81Z"/><path class="cls-11" d="M332.86,266.23l.84-.61s3.51,0,5-.68,3.27-.7,2.6,0-4,1.45-3.32,3.25S332.86,266.23,332.86,266.23Z"/><path class="cls-11" d="M345.44,267.21a32.46,32.46,0,0,1-3.35,1c-1.39.47,6.27-2.9,6.27-4s-6.41,2.29-8.28,3.08c-2.12.9-5.49-.67-6.38-1.68,0,0-26.41-8.86-33.43-13.83-.63-.45-2.25-2.73-2.06-4.45-4.51.41-9.07-2.16-13.08,0,0,2.77-.62,9.66.12,11,4.58,8.43,34.4,11.6,40.66,11.6s12.41,1.49,14.15,1.49,9.85-4.44,10.09-6.51S346.27,266.69,345.44,267.21Z"/><path class="cls-19" d="M310.14,206c4.58-5.17,3.51-28.15,3.51-28.15s-12.47.58-18.13,11.45c-5.94,11.42-8.36,22.58-11.93,60.8,4-2.16,10.11-2.39,14.62-2.8C299.24,238.1,306.28,210.4,310.14,206Z"/><path class="cls-11" d="M332.72,159.14c.51.5-1.53,15.06.49,19.09,0,0,5.3,20.82,1.7,21.25-3.14.37-14.88-17.81-15.5-20.69-.84-3.86-.09-22.5-.09-22.5Z"/><path class="cls-20" d="M333.21,178.23c.53,3,4.17,21.54,1.3,20.58-3.39-1.53-13.63-16.48-15.1-20,1.84,5.68,16.73,30.65,17.3,17.27C336.65,190.81,334.76,183.19,333.21,178.23Z"/><path class="cls-10" d="M332.52,165.16c-4.79,4.33-9.73,1.32-13.36-4.11.08-2.73,0-5.49,0-5.64l13.54,3.73C332.93,159.34,332.71,161.92,332.52,165.16Z"/><path class="cls-11" d="M331.21,126.42s6.07,1.16,6.79,6.36,1.73,9.53.72,15.59-4.62,14.15-10.54,15.45S316.05,155.3,316.05,150s-2.16-14.29,1.88-19.78S331.21,126.42,331.21,126.42Z"/><path class="cls-21" d="M324.37,154.39a24.27,24.27,0,0,0,7.91,1.42,8.17,8.17,0,0,1-.91,1.35,24.23,24.23,0,0,1-6.31-1.12A9.75,9.75,0,0,1,324.37,154.39Z"/><path class="cls-22" d="M325.06,156a24.23,24.23,0,0,0,6.31,1.12C329.11,159.85,326.72,159.2,325.06,156Z"/><path class="cls-10" d="M331.6,124.22s5.68,3.36,6.4,8.56c.65,4.71,1.54,8.71.95,13.93a16.33,16.33,0,0,0-4.26-2c-5.35-1.76-10.9-9.53-11.56-16.08C322.41,121.66,331.6,124.22,331.6,124.22Z"/><path class="cls-23" d="M331.27,150.89a48.76,48.76,0,0,1-.26-5c.37,2.12.46,3.66.59,5.2a4.77,4.77,0,0,1-3.27.23A5.39,5.39,0,0,0,331.27,150.89Z"/><path class="cls-23" d="M328,145.74a3.31,3.31,0,0,0-2.23-2.16c-2-.52-3.19,2.33-4.55,2.3,1,.5,2.54-1.16,3.61-1.59a2,2,0,0,1,1.66.2A5.22,5.22,0,0,1,328,145.74Z"/><path class="cls-23" d="M324.4,144.89a1,1,0,1,0,1-1.09A1,1,0,0,0,324.4,144.89Z"/><path class="cls-23" d="M332.39,146.36a3.31,3.31,0,0,1,2.33-2.06c2-.43,3.08,2.48,4.44,2.51-1,.45-2.48-1.28-3.54-1.75a1.93,1.93,0,0,0-1.67.12A5.27,5.27,0,0,0,332.39,146.36Z"/><path class="cls-23" d="M336,145.67a1,1,0,1,1-.91-1.13A1,1,0,0,1,336,145.67Z"/><path class="cls-23" d="M328.69,141.12c.22-.14-1.51-1.87-3.59-2.07s-4.31,2.07-4.31,2.07,3-1.82,4.34-1.23S327.5,141.9,328.69,141.12Z"/><path class="cls-24" d="M325.86,122c-4.42.51-11.43-.57-14.69,6.64-1.92,4.1-5.87,12-5.87,26,0,20.91-20.17,30.17-20.17,30.17l8.84,4.27,5.28-4.27-3.6,7.67L310.14,194l.62-10,3,11.39,6.77-1.38s-2.67-34.22-3-47.14l.07.09s-.06-1.67-.06-3.81h0c0-.63,0-1.27,0-1.93a40.54,40.54,0,0,1,.41-5.66c.65-3.54,1.95-5.34,5.13-6.86s14.55,2.8,14.55,2.8C337.29,124.88,330.28,121.52,325.86,122Z"/><path class="cls-25" d="M331.77,123.21c5.56,1.23,7.24,9.78,11.79,14.33S347,148.66,344.79,153s-5.64,1.52-5.64,1.52,1.81,1,3-2.6-.86-6.43-7-8.45-12-14.8-12-14.8C323,126.17,326.21,122,331.77,123.21Z"/><path class="cls-26" d="M339.15,154.51c2.1,1.22,5.08-3.94,2.91-7.31-1.58-2.6-5-3.7-7.8-4.84-4.37-2.52-8.58-9.46-11.13-13.7,1.85,5.06,5.77,12.08,10.49,14.88l1.14.49c1.17.47,4.72,1.43,6.44,3.74,1.38,1.82.72,4.64-.2,6A1.63,1.63,0,0,1,339.15,154.51Z"/><path class="cls-11" d="M318.8,147.58s-1.55-6.71-4.12-5.09.19,9,2.59,9S318.8,147.58,318.8,147.58Z"/><path class="cls-10" d="M316.3,143.9s3.8,6.09,1.19,5.42S313.86,142.77,316.3,143.9Z"/><path class="cls-10" d="M325.89,149.65c-.26.79-1.71,1-3.24.51s-2.55-1.57-2.28-2.36,1.71-1,3.24-.51S326.16,148.86,325.89,149.65Z"/><path class="cls-10" d="M338.2,149.25c.12.76-.87,1.53-2.21,1.74s-2.51-.25-2.63-1,.88-1.53,2.21-1.74S338.09,148.5,338.2,149.25Z"/><path class="cls-27" d="M251,214.44s29.72,9.42,31.5,26.33l-7.92,2.57-27.41-17.07Z"/><path class="cls-28" d="M218.39,329.77S235.52,477,239.81,492.7v9.93h32.86a7.19,7.19,0,0,0-5.7-3.31c-3.71,0-13.1-3.59-15.67-6.07s1.62-205.93,1.62-205.93H212.1Z"/><polygon class="cls-29" points="213.56 162.4 212.77 174.71 241.92 171.39 235.11 163.05 213.56 162.4"/><path class="cls-30" d="M237.47,300.08l-4.74,23.81S194.8,452.89,196.46,498c0,0,3.19,5.34,14.46,8.5.61.17,1.19,2.27,1.19,2.27h-29.4l1.66-9.07s.95-153.38.95-171.24,4.74-41.11,4.74-41.11h49.31Z"/><path class="cls-31" d="M257.19,256.78c0-41.73-12.19-83.24-21.31-88.52,0,0-10.6-.73-16-.91-8.13-.28-20.65,3.83-27.41,26.85-4.26,14.51-2.25,49.54-1.79,80.06.2,13.53-1.85,26.18-1.56,35.77,23,0,39.78-.77,62.08-.77C251.49,302,257.19,269.9,257.19,256.78Z"/><path class="cls-32" d="M224.82,217.67c.07.62-13.55-49.1-13.55-49.1a51.67,51.67,0,0,0-10.64,5.56c-6.07,4-14.45,31.73-14.45,31.73s2,65.56,2,70.54c0,2.69-4.36,42.83-8.39,79.37l49.71,4.72C228.8,309.52,224.82,217.67,224.82,217.67Z"/><path class="cls-33" d="M235.88,168.26s17.54,6.83,21.31,52.7S261,360.49,261,360.49H243.78s-1.86-133.8-1.86-143S235.88,168.26,235.88,168.26Z"/><polygon class="cls-34" points="235.11 163.05 241.9 216.36 244.31 189.7 241.92 186.81 241.92 171.39 235.11 163.05"/><path class="cls-35" d="M204.7,303.34h3.24a11.39,11.39,0,0,1,11.39,11.39V334a0,0,0,0,1,0,0h-26a0,0,0,0,1,0,0V314.73A11.39,11.39,0,0,1,204.7,303.34Z" transform="translate(412.63 637.34) rotate(180)"/><rect class="cls-35" x="186.53" y="266.46" width="6.78" height="14.89" transform="translate(379.84 547.8) rotate(180)"/><path class="cls-11" d="M205.37,220.8l0,0C205.65,220.75,205.63,220.76,205.37,220.8Z"/><polygon class="cls-36" points="276.13 247.91 319.45 216.97 274.47 212.88 240.46 248.77 276.13 247.91"/><path class="cls-11" d="M257.57,233.79s-5.3,1.18-7.26,3.28c-2.49,2.68-8.42,7-10.91,7s-13.11,1-13.11,1l-1.78,11.68s39.59-9.07,41.46-11.07-9.29,1.49-9.29.6,13.43-1.89,12.74-4.14-12.39,3-13.43,1.91,14.12-3,14.12-5.33S255,242.2,255,242.2s-.28-1.2,3.81-3.13,8-3.48,7.14-4.44-11.35,5.17-12.72,3.69Z"/><path class="cls-35" d="M204.73,178.56a43.57,43.57,0,0,1,4,22.38c-1,13.22-2.71,33.48.1,40.09s23.38,0,23.38,0v15.64s-29.83,12.11-38.47,8.15-7.81-38.11-7.81-54.85S199.22,166.55,204.73,178.56Z"/><polygon class="cls-34" points="224.82 217.67 213.56 162.4 201.91 171.46 212.1 190.38 211.34 196.3 224.82 217.67"/><path class="cls-11" d="M272,249.14a17.32,17.32,0,0,0,2.86,2.05c2.1,1.3,4.2-.74,4.64-1.13a16.89,16.89,0,0,0,2.56-3.08,6.79,6.79,0,0,0,1.06-2.46c.3-1.39-4.92-5.68-5.4-5.33-.33.24-.59.55-.48.91s3,4.56,3,4.56-4.11-4.07-5.32-3.94-1.05.86-.73,1.2,4.18,5.26,4.18,5.26-4.9-3.77-5.68-3.68-1.32,1.11.65,2.78a30.93,30.93,0,0,1,2.92,3.18s-3.69-2.3-4.87-2.17S272,249.14,272,249.14Z"/><path class="cls-37" d="M220.21,152.45c-.5-.32-6.76-15.89-6.76-15.89s-4.18-11.69-1.48-13.67,9.11-8.84,14.73-9a21.45,21.45,0,0,1,9.89,1.88c.5.32,4.14,6.47,4.14,6.47s-1.69-2.07-2.57,5.61S220.21,152.45,220.21,152.45Z"/><path class="cls-11" d="M234.39,151.75c-.67,2-.38,16.19-.91,19.76s-16.63,9-16.95-3.84.95-27.93.95-27.93Z"/><path class="cls-10" d="M234.39,151.75h0l-5.61-4-11.3-8v0h0c0,.05,0,.15,0,.3,0,.46-.11,1.4-.19,2.69h0c0,.26,0,.54-.05.83v.05c-.07.94-.13,2-.2,3.19v.2c0,.28,0,.56-.05.86h0l0,.45v0a1.09,1.09,0,0,1,0,.18v.06c0,.1,0,.21,0,.31,2.1,6.88,10,14.36,16.9,15.24,0-.47,0-.95.07-1.43C233.94,158,234,152.88,234.39,151.75Z"/><path class="cls-11" d="M216.85,128c-2.07,5.14-2.18,14.53,2.74,21.63s11.71,10.76,16.58,7.18,6.26-26.05,2.74-31.84S220,120.15,216.85,128Z"/><path class="cls-38" d="M216.85,149.54s-1.09-7.35-3.91-9.14-4.09-2.88-4.6-5.48-9.92-4.33-8.38-8.59,8.9-6.27,12.64-13.69,7.79-11.53,16.52-8.82,9.95,8,9.95,8,3.85-.67,6.2,3.94.67,7.23-.85,9.39c0,0,.33-6.09-1.76-5.67s0,7.12,0,7.12a54.62,54.62,0,0,1-6.48-6.53c-3.34-4-2.52.67-1.53,5.7s-6.42.29-9.71-3.34-8-.24-9.73,4.91S220.93,140.63,216.85,149.54Z"/><path class="cls-11" d="M218.47,136s-3.08-5.25-4.68-3-.28,9.11,3.11,9.18S218.47,136,218.47,136Z"/><path class="cls-10" d="M216.73,136.42s.12-3-1.53-2,0,5.9,1.53,5.8S216.73,136.42,216.73,136.42Z"/><path class="cls-23" d="M234.19,135a19.21,19.21,0,0,1,1.23,4.34,11.2,11.2,0,0,1,0,4.8c-.37-.07-1.37-.21-2.69-.56.85,0,1.7,0,2.53,0l-.28.2A59.21,59.21,0,0,0,234.19,135Z"/><path class="cls-25" d="M230,135.79a1.51,1.51,0,0,1-.89,1.89c-.67.14-1.35-.49-1.53-1.4a1.53,1.53,0,0,1,.89-1.9C229.16,134.24,229.84,134.88,230,135.79Z"/><path class="cls-25" d="M239.24,134.48a1.53,1.53,0,0,1-.89,1.9c-.67.13-1.35-.5-1.53-1.41a1.53,1.53,0,0,1,.89-1.9C238.38,132.94,239.06,133.57,239.24,134.48Z"/><path class="cls-23" d="M224.78,133.47a6.58,6.58,0,0,1,3.78-3c2.36-.48,1.65,1.51,1.09,1.62S224.69,133,224.78,133.47Z"/><path class="cls-23" d="M236,129.36s2.8.83,3.33,2.11c0,0-3-.24-3.49-.93A.79.79,0,0,1,236,129.36Z"/><path class="cls-21" d="M226.74,147.52s7.22,2.71,11.13.1c0,0-1.1,3.63-2.09,4.29C233.68,153.29,228.52,152.24,226.74,147.52Z"/><polygon class="cls-39" points="601.02 305.58 658.89 325.55 640.05 196.87 601.02 305.58"/><path class="cls-39" d="M618.79,485l3.5,17.58s-37.59,2.78-37.59,1.11,19.62-6.75,21.95-9.08c3.29-3.29,2.13-6.59,2.13-6.59Z"/><path class="cls-40" d="M828.6,317.26c-1.09-1.09-47.71,8.74-47.71,8.74l10.45-74.13,8.59-51.28L814,175.19s17.91-5.42,19-3.55l5.9,57.13Z"/><path class="cls-41" d="M844.43,500.94l1.39,7.66s-3.6,11.73-9.06,17.19-17.19,5.81-17.19,1.17,12.24-19.06,12.24-24.63S844.43,500.94,844.43,500.94Z"/><path class="cls-41" d="M807.26,502.33l2.09,14.17h-36S774.5,513,785,510.93s11-5.73,11-5.73l-.81-9.14,9.52-1.4Z"/><path class="cls-42" d="M713.72,159.7c-1.42,12.47,8.65,12.1,5.92,22.21a18.74,18.74,0,0,1-6.56,9.73c-5.67,4.38-11.3-.78-11.3-.78s6-.8,5.49-2.35c0,0-6.36,3.49-9.15.49s-3.11-5.5-3.11-5.5,6.46,2.58,4.4-2.57c-1.43-3.59-3.16-8.12-5.34-13.05-4.48-10.12,1.53-22.41,4.47-27.52,5.11-2.12,14.26,9.37,19.67,7.83C716.62,152,714.19,155.54,713.72,159.7Z"/><polygon class="cls-43" points="591.75 278.85 591.75 317.8 604.63 489.63 623.26 487.83 625.32 374.56 614.75 276.85 591.75 278.85"/><polygon class="cls-44" points="822.36 340.1 801.1 414.82 808.88 504.89 795.18 504.89 776.36 409.64 795.18 300.56 822.36 340.1"/><path class="cls-45" d="M795.18,297.66l12.66,42.49s19.4,63.45,22.53,100.15,0,61.8,0,61.8l17.31,2.79s10-76.2,6.27-101.76.83-87.81.83-87.81l-7.1-17.66Z"/><path class="cls-39" d="M642.38,487.51s-2.16,8.22-2.16,14.11-18.61,22.61-22.32,18.9,9.83-31,9.83-31l.93-4.64Z"/><path class="cls-46" d="M599.17,276.85l4.45,39.1S632.8,455.54,624.39,491.4h22.26l4.82-170.88-10.76-41Z"/><path class="cls-47" d="M711.53,205.21S710.34,192,706.26,192c-8.55,0-23.42,40.88-23.87,47.25-.75,10.71,6.63,11.35,13.85,12.22,7.07.85,8.38-14.67,8.38-14.67Z"/><polygon class="cls-16" points="735.9 504.84 735.69 517.82 737.14 517.87 739 503.06 735.9 504.84"/><path class="cls-11" d="M725.91,390.63s1.55,20.31,4,26.38-2,86.27-4.06,92.74a20.06,20.06,0,0,1-1.76,3.84c-2.31,3.94-2.83,4.75.26,4.76,4,0,7.44-.75,8.22-2.37,1.33-2.81,2.5-12.48,5.22-12.47,0,0,1.85-3.6,1.39-5.5-.69-2.85-2.64-1.39-2.62-5.35s13.16-64.31,11.1-73.09-3.51-9.83-3.48-20.27S725.91,390.63,725.91,390.63Z"/><path class="cls-11" d="M716.94,369.37S702.12,397.59,703.07,406s4.07,15.11,1.39,26.52-23.93,52.8-24.44,60.37c-.21,3.19.76,3.49.76,3.49,0,5.49-1.75,11.38-2.9,12.52-1.46,1.45-3.12,8.7-4.51,8.7s-13.16,1.25-13.16,1.25c-.31-2.69,3.3-.53,5.4-6.09s3.39-13.92,6.08-25.19,13.69-62.71,13.73-74.55-1-11.9.79-19.69,8.71-22.4,8.71-22.4Z"/><path class="cls-48" d="M703.07,406c-1-8.36,13.87-36.58,13.87-36.58l-22,1.51s-6.88,14.6-8.71,22.4c-1.35,5.71-1.12,7.27-.92,12.37,4.21.9,10.75,2.22,18.23,3.43C703.35,408.05,703.19,407,703.07,406Z"/><path class="cls-10" d="M744.21,399.3c0-10.45-18.3-8.67-18.3-8.67s1,12.95,2.65,21.26a83,83,0,0,0,16.91-.62A41.82,41.82,0,0,1,744.21,399.3Z"/><path class="cls-49" d="M706.26,192s6.86-5.28,30.09,0c.64.14,1.21,25.36,1.21,25.36s-10.78,42.2-8.73,52.73c0,0-12.32,10.4-30.71,1.34,0,0,2.39-33.13.72-40.52s-5-14.07-.27-21.73A86.65,86.65,0,0,0,706.26,192Z"/><path class="cls-50" d="M692.47,321.83c1.95-9.47,5.65-50.49,5.65-50.49s2.39-33.13.72-40.52-5-14.07-.27-21.73A86.65,86.65,0,0,0,706.26,192s6.86-5.28,30.09,0c.64.14,1.21,25.36,1.21,25.36s-10.78,42.2-8.73,52.73c0,0,12.33,20.15,15.15,31.22s.78,97.21.78,97.21c-12,4.18-60.91,0-60.91,0S690.52,331.3,692.47,321.83Z"/><path class="cls-18" d="M724.12,513.59c0,2.54.13,3.1,4,2.26,2.75-1.28,7.6-14,8.82-21.24.77.45,2.79,1,3.43,3.48.46,1.8-1.74,19.82-1.74,19.82l-1.44,0,.89-13.09c-2.72,0-3.48,10.62-4.81,13.43-.77,1.62-7,1.36-10.93,1.35C719.2,519.55,721.81,517.53,724.12,513.59Z"/><path class="cls-18" d="M663.91,515.26c-2.77,2.57-7,2-6.73,4.2,0,0,15.24-.6,16.63-.6s2.61-8.56,4.07-10,.53,10,.53,10h1.5s1-11.83,2.45-16.42c1.12-3.66-.45-5.21-1.58-6.13C676.18,505.05,675.43,517.35,663.91,515.26Z"/><path class="cls-10" d="M721,242.71c-2.88,2-4.75,4.92-11,6.68a105.61,105.61,0,0,0,11.78,8.1,83.17,83.17,0,0,0,1.73-14.22C723.37,243.33,721.11,242.67,721,242.71Z"/><path class="cls-51" d="M746.82,201.92c-1.84-5.84-9.67-10-9.67-10-6.27-.73-8.1,32.25-8.1,32.25l-2.5,18.22c-.51.55-2.38,0-3,.29a89.69,89.69,0,0,1-1.73,14.78c6.2,3.6,11.92,5.61,14.4,3.14C741.8,255,748.68,207.76,746.82,201.92Z"/><path class="cls-11" d="M691.47,225c-2.46-.53-10.14,2.14-10.14,2.14s-2,2.83-2,4.65a.38.38,0,0,0,.46.43c-.53.38-.79.7-.57.91,1,1,9-2.84,9.51-2.36s-9.11,2-8.33,3.78c.32.73,4-.43,6.32-1.23-2,.79-5,2.06-5,2.83,0,1.18,8.37-.63,10.2-.63A8.34,8.34,0,0,1,695,237c.56-.11.95.16,1.19.09a108.59,108.59,0,0,1,14.22.85C701.68,232.77,692.14,225.15,691.47,225Zm-8.68,5.56c-.64.31-1.26.63-1.82.93.54-.51,1-1.64,1.74-2.18,1.55-1.1,3.9-1.72,4.25-1.37S685,229.46,682.79,230.56Z"/><path class="cls-52" d="M728,232c-.42,2-.35,8.06-1.31,9.57,0,0-1-.74-1.38-.38h0c-3.41,1.82-8.23,6.82-17.62,8.82-9.22,1.93-21.81,2.93-21.81-3.34s6.3-9.69,10.3-9.69a137.3,137.3,0,0,1,14.22,1h0C718.36,239,727.15,231.33,728,232Z"/><path class="cls-42" d="M703.3,137.45s2.19-5.62,15.45-5.62,16,13.08,14.27,16.31,1.19,9.77,4.25,10.66,10.72,5.09,6.58,9.23,3.28,3.91,3.28,7.65-2.27,6.2-7.48,6.87S703.3,137.45,703.3,137.45Z"/><path class="cls-11" d="M706.29,173.59s1.9,16,1.9,26.4c0,1.59,8.21-.09,9.8-1.25,2.55-1.85,4.36-3.09,4.81-6.58.29-2.34-6.51-25.24-6.51-25.24Z"/><path class="cls-10" d="M717.26,170.22c-1.49,4.92-4.2,10.29-9.26,12.07a6.39,6.39,0,0,1-.8.22c-.46-5.11-.91-8.92-.91-8.92l10-6.67S716.68,168.21,717.26,170.22Z"/><path class="cls-11" d="M701,140.36a11.32,11.32,0,0,0-4.7,6c-1.34,4.14.75,9.35.19,12.93s3.41,21.67,12.32,18.94S719,162.44,719.5,159.53s-2-13.6-6.55-16.72S701,140.36,701,140.36Z"/><path class="cls-10" d="M696.26,146.38a11.32,11.32,0,0,1,4.7-6s7.44-.67,12,2.45,7,13.82,6.55,16.72c-.35,2.23-1.23,10.38-5.6,15.33-.46-5.07,3.15-12.58,1.66-19.8a9.83,9.83,0,0,1-3.35.42c-4.12-.21,1.59-6-2.15-11.81-2.3-1.73-2.38-1.94-3.89-2.3-.49,4.65-5,12.76-9.66,17.42C696.82,155.24,695,150.33,696.26,146.38Z"/><path class="cls-53" d="M702.67,158.47a58.67,58.67,0,0,1-1.43,7.17,4.35,4.35,0,0,0,2.53.63,4.05,4.05,0,0,1-3-.44A62.42,62.42,0,0,1,702.67,158.47Z"/><path class="cls-53" d="M707,155.15a8.51,8.51,0,0,1,3.81-1.24c2-.07,4.57,2.44,4.57,2.44s-2.87-2-4.21-1.86a7.65,7.65,0,0,0-2.72.87Z"/><path class="cls-53" d="M702.16,154.82a7.11,7.11,0,0,0-3-1.79c-1.67-.37-4,1.73-4,1.73s2.59-1.51,3.69-1.21a6.34,6.34,0,0,1,2.17,1.26Z"/><path class="cls-21" d="M707.7,170c-4.41,1.25-6,1-7.45.57C702.23,172.39,706,171.7,707.7,170Z"/><path class="cls-53" d="M708,158.18a1.14,1.14,0,1,0,.91-1.45A1.21,1.21,0,0,0,708,158.18Z"/><path class="cls-54" d="M713.11,158.8c-4.2-4.32-5.86-1.16-7.26-.93,1.14.07,2.44-1.16,3.69-.84A18.5,18.5,0,0,1,713.11,158.8Z"/><path class="cls-53" d="M698.44,157.92c.1.7.58,1.2,1.07,1.11s.79-.72.69-1.43-.59-1.2-1.07-1.11S698.34,157.21,698.44,157.92Z"/><path class="cls-54" d="M702,158.41c-3.35-4.08-4.88-.88-6.07-.6,1,0,2.1-1.25,3.14-1A13.21,13.21,0,0,1,702,158.41Z"/><path class="cls-10" d="M707.72,164.94c.2,1.2,1.65,2,3.25,1.71s2.73-1.44,2.53-2.65-1.65-2-3.24-1.71S707.52,163.73,707.72,164.94Z"/><path class="cls-53" d="M710.06,143.67a14.09,14.09,0,0,0-6.93-3.12,16.08,16.08,0,0,0-1.69,0,10.34,10.34,0,0,1-1.1.15,1.3,1.3,0,0,1,.18-.45c.62-1.35,2.92-5.23,9.05-5.12h.61c3.77.15,7.56,0,11.2,1.16a14.25,14.25,0,0,1,5.82,3.36c1.95,1.93,2.19,4.24,2.25,6.89.11,4.83-1,9.76.27,14.51a17.61,17.61,0,0,0,8.06,11.14c3.62,2,5.44,5.21,5.93,9.34a22.5,22.5,0,0,1-2.33,12.72c-3.56,6.83-10.74,3.81-10.74,3.81s5.2-3.26,4.17-4.67c0,0-5,6.74-9.2,7.25a10.37,10.37,0,0,1-10.28-4.53s9.37-1.58,5.49-6.05c-2.7-3.12-3.13-7.52-6.12-12.54-1.65-2.77-.14-7.47,1.1-12.62.1-.6.35-1.64.64-2.87a22.15,22.15,0,0,0,.28-8.6,3.48,3.48,0,0,1-2.06.42c-2.37-.12-2.36-1.55-2.45-3.69A16.76,16.76,0,0,0,710.06,143.67Z"/><path class="cls-53" d="M703.3,137.45a12.76,12.76,0,0,0-8.63,2.18c-4,2.89-4.38,14.4-2.29,16.78s-7.45,5.51-2.31,5.94C697.36,163,707.79,138.64,703.3,137.45Z"/><path class="cls-55" d="M725,155.57a30.44,30.44,0,0,0-3.31,10c-1.07,10.13,10.43,6.56,13.36,7.23a3,3,0,0,1,2.08,4.45c-.83,1.78-2.13,2.16-2.87,2.81a1.93,1.93,0,0,0,.17,3.15c2,1.45,5.14-.62,5.56,2.5a6.27,6.27,0,0,1-2.59,5.91,6.41,6.41,0,0,0,3.29-6c-.15-2.54-1.87-2.69-4.24-2.89-1.47-.13-1.88-.91-1.7-1.34.23-.86,2.3-.88,3.62-3.57a4.42,4.42,0,0,0-1.15-5.58c-4.44-3.59-17,4.87-14.14-10A40.25,40.25,0,0,1,725,155.57Z"/><path class="cls-55" d="M701.87,139.06c-6.91-.23-11.26,5.35-9.43,11.13a3.37,3.37,0,0,0,1.79,2.32l.4-1.39c-.38-.05-.86-1-1-1.35C691.59,144.74,695.29,139.34,701.87,139.06Z"/><path class="cls-56" d="M847.68,180.46s-22.31-11.94-36.82,2.57-15.68,55.51-15.68,55.51v47.39L793.09,307l54.36-6.46-7.32-72.34Z"/><path class="cls-57" d="M801.1,250.73l35.62-75.59L859.64,183l-8,67.7,15,76s-58.37-5.05-65.51,2.09Z"/><path class="cls-58" d="M810.86,183s-13.24,42-13.24,54.85S787.16,326,787.16,326h-6.27l8.71-88.12,10.76-40.32Z"/><polygon class="cls-59" points="813.98 175.19 796.54 251.87 800.36 197.56 803.87 193.89 801.1 194.51 808.05 179.5 813.98 175.19"/><path class="cls-11" d="M756.32,265.09c9.34.91,13.55,1.44,13.75.74-.53-.73-2.59-1.1-9.11-2-3.75-.54-9.84-2.1-10.59-2.81-1.07-1.49,2.4-1.16,4.28-.74.19,0,19.41,4.08,20.87,1.39s-4-3.66-7.29-4.18-5.08-3.39-3.82-3.87c1.56-.6,4.93,2.75,10.39,3.29,4.78.48,11.67,1.51,14.66,2.17l2.88,1.9,8.81-.62-.44,8.66L794,270.69c-5.74,2-14.27,4.73-20,5.69a43.29,43.29,0,0,1-13.62.33c-.62-.12-.67-.91-.06-1,1.58-.21,3.89-.33,5.51-.41,5.33-.26,7.13-1.3,7.44-2.37-.76-.77-2.85-.75-10.19-.29-3.39.21-8,.51-8.78.19-3-2,4.61-2.32,8.05-2.3s7.3.36,7.75-1.19c.14-.5-4.45-1.23-10.2-1.43C739,267.19,746.07,264.09,756.32,265.09Z"/><path class="cls-60" d="M859.64,183s8.08-2.05,11.85,25.69-4.53,64-11.85,67.45-68.3-4.18-68.3-4.18l3.84-17.47s38.28.89,45.65-6.47,8-29.28,6.85-41.34S859.64,183,859.64,183Z"/><path class="cls-61" d="M606.75,172.45s-15,25.31-15,37.67-5.52,60.59,0,78.23c4.49,14.35,31.59,17.89,55.64-6.16,8.88-8.89-9.65-49.33-9.65-49.33l13.73-61.21-24.12-7.81S617.88,180.24,606.75,172.45Z"/><polygon class="cls-58" points="637.86 167.24 651.47 171.65 653.69 243.53 673.35 315.95 658.89 325.55 619.94 258.45 624.76 198.05 637.86 167.24"/><path class="cls-58" d="M592.47,186.55l14.28-14.1S593.05,203,593.05,217s-1.3,84-1.3,84-6.84-19.9-6.84-38.83S592.47,186.55,592.47,186.55Z"/><path class="cls-11" d="M806.9,119.78s-8.3,10.29-9.7,17.4c-1.45,7.31-3.27,19-3.27,19l3.26.09s2.53,6.59,2.4,10.94,6.83,1.82,10.82,1.93,12.94-3.08,16.73-15.47S837.88,119.21,806.9,119.78Z"/><path class="cls-11" d="M834.87,181.6s-23.47,7-22.26,5.89-.5-16.69-.9-21.76c.9-2.08,7.71-17.89,7.27-16.88h0l1.4-3.24Z"/><path class="cls-62" d="M796.26,111.88c-.39.61-7,13.21,3.67,18.4s13.59-1.77,16.36,2.65-2.83,11.3-.59,15.35l3.59.79s.79-2.11,2.24-2.07,1.55,11,3.88,11.08,7.11-9.15,9.41-13.43,7.22-18.81-1-22.84S821.91,120.57,822,117s-3.62.08-3.62.08a6.35,6.35,0,0,1-.56-5.81c1.35-3-8.75-4.41-11.28,1.67S800.43,105.3,796.26,111.88Z"/><path class="cls-11" d="M818.54,142.94s-.38,7.14,1.34,7.19,5.61-3.89,5.09-8.21S819.46,138,818.54,142.94Z"/><path class="cls-10" d="M819.76,142.2s-.94,2.82.32,4.15,3.83-1.7,2.52-4.07S820.08,140.57,819.76,142.2Z"/><path class="cls-62" d="M801.05,139.69l-.32,1.72s3-.28,4.65,1.43,1.83,1.9,1.83,1.9S806.44,140.81,801.05,139.69Z"/><path class="cls-62" d="M804.16,145.11a1.35,1.35,0,1,1-1.29-1.62A1.48,1.48,0,0,1,804.16,145.11Z"/><path class="cls-62" d="M801.15,161a5.63,5.63,0,0,0,2.92-.64,2.77,2.77,0,0,0,1-1,3.2,3.2,0,0,0,.4-1.28V158a.53.53,0,0,1,.6-.43.52.52,0,0,1,.43.59.19.19,0,0,1,0,.08,3.85,3.85,0,0,1-.79,1.56,3.51,3.51,0,0,1-1.39,1A5.81,5.81,0,0,1,801.15,161Z"/><path class="cls-62" d="M791.12,124.77a4.08,4.08,0,0,0,.83,2.15c1.83,2.52,5.51,3,8,3.36a16.73,16.73,0,0,1-6.4-.32,7,7,0,0,1-5.15-4.89Z"/><path class="cls-10" d="M819.76,167.9a66.35,66.35,0,0,1-7.41,4.91c-.31-3.92-.64-7.08-.64-7.08s1.95,1.78,7.25-17l0,.12h0C819.21,150.48,821.37,166.39,819.76,167.9Z"/><path class="cls-62" d="M799.36,164.24a29.05,29.05,0,0,0-.69,4.39c0,1.6,3.92,3.49,7.56,2.56s8.73-3.17,10-4.37S819,149,819,149l-3.25-.72s-1.92,10.81-3.31,12.12S799.36,164.24,799.36,164.24Z"/><path class="cls-63" d="M834,271.19c0,3.25,6.14,5.89,13.72,5.89s13.72-2.64,13.72-5.89-6.14-5.89-13.72-5.89S834,267.94,834,271.19Z"/><path class="cls-64" d="M847.44,275.57a.19.19,0,0,1,.18-.19h.06c.5,0,1,0,1.5,0a.2.2,0,0,1,.2.19.18.18,0,0,1-.18.19c-.5,0-1,0-1.52,0h-.06A.19.19,0,0,1,847.44,275.57Zm-1.34.15c-.51,0-1-.06-1.52-.12a.19.19,0,0,1-.17-.2.18.18,0,0,1,.21-.17c.49,0,1,.09,1.5.11a.2.2,0,0,1,.18.2.19.19,0,0,1-.19.18Zm4.42-.28a.19.19,0,0,1,.17-.21c.5-.05,1-.11,1.49-.19a.19.19,0,0,1,.22.16.19.19,0,0,1-.16.21c-.5.08-1,.15-1.52.2h0A.19.19,0,0,1,850.52,275.44Zm-7.45,0c-.52-.08-1-.18-1.5-.29a.19.19,0,0,1-.15-.22.21.21,0,0,1,.23-.15c.47.11,1,.21,1.47.29a.19.19,0,0,1,.16.22.18.18,0,0,1-.18.16Zm10.44-.42a.18.18,0,0,1,.15-.22c.5-.12,1-.24,1.45-.39a.19.19,0,0,1,.23.13.18.18,0,0,1-.12.23c-.47.15-1,.28-1.48.39h0A.19.19,0,0,1,853.51,275Zm-13.42-.26c-.51-.16-1-.33-1.45-.52a.19.19,0,1,1,.15-.35c.43.18.91.35,1.41.51a.18.18,0,0,1,.12.23.18.18,0,0,1-.18.14Zm16.33-.6a.19.19,0,0,1,.1-.25,11.16,11.16,0,0,0,1.34-.65.19.19,0,1,1,.19.33,11.26,11.26,0,0,1-1.39.67h-.07A.18.18,0,0,1,856.42,274.12Zm-19.16-.6a6.55,6.55,0,0,1-1.25-.93.19.19,0,0,1,.26-.27,6.12,6.12,0,0,0,1.18.87.2.2,0,0,1,.07.26.19.19,0,0,1-.16.1A.19.19,0,0,1,837.26,273.52Zm21.78-.89a.19.19,0,0,1,0-.27,1.78,1.78,0,0,0,.65-1.16.19.19,0,0,1,.19-.18h0a.18.18,0,0,1,.19.19,2.1,2.1,0,0,1-.77,1.42.18.18,0,0,1-.13.05A.19.19,0,0,1,859,272.63Zm-23.58-1.29a.19.19,0,0,1-.18-.19,2.18,2.18,0,0,1,.79-1.42.19.19,0,1,1,.26.28,1.78,1.78,0,0,0-.67,1.15.19.19,0,0,1-.19.18Zm23.6-1.3a6.22,6.22,0,0,0-1.18-.86.19.19,0,0,1,.19-.33,6.22,6.22,0,0,1,1.26.92.2.2,0,0,1,0,.27.19.19,0,0,1-.13.06A.2.2,0,0,1,859.06,270Zm-21.8-1a.19.19,0,0,1,.07-.26,12.91,12.91,0,0,1,1.39-.67.19.19,0,0,1,.14.35,11.16,11.16,0,0,0-1.34.65.15.15,0,0,1-.09,0A.2.2,0,0,1,837.26,269.08Zm19.28-.56a14.44,14.44,0,0,0-1.41-.5.2.2,0,0,1-.12-.24.19.19,0,0,1,.24-.12c.51.15,1,.33,1.44.51a.19.19,0,0,1,.1.25.19.19,0,0,1-.17.12Zm-16.5-.64a.19.19,0,0,1,.12-.24c.47-.14,1-.27,1.48-.39a.19.19,0,0,1,.23.15.18.18,0,0,1-.14.22c-.51.11-1,.24-1.46.38h0A.18.18,0,0,1,840,267.88Zm13.64-.25c-.48-.11-1-.2-1.47-.28a.19.19,0,1,1,.06-.37c.5.08,1,.17,1.49.28a.2.2,0,0,1,.15.23.19.19,0,0,1-.19.15ZM843,267.18a.18.18,0,0,1,.15-.21c.5-.08,1-.15,1.52-.2a.19.19,0,0,1,.21.17.19.19,0,0,1-.17.21c-.51.05-1,.11-1.5.19h0A.18.18,0,0,1,843,267.18Zm7.72,0c-.48,0-1-.08-1.5-.11a.2.2,0,0,1-.18-.2.22.22,0,0,1,.2-.18c.52,0,1,.07,1.52.12a.19.19,0,0,1,.17.2.19.19,0,0,1-.19.17Zm-4.71-.29a.2.2,0,0,1,.18-.2c.47,0,1,0,1.48,0h0l0,.19v-.19a.18.18,0,0,1,.17.19.2.2,0,0,1-.2.19c-.51,0-1,0-1.48,0h0A.19.19,0,0,1,846,266.86Z"/><polygon class="cls-59" points="801.1 250.73 833.86 201.02 830.37 193.59 837.69 194.05 847.68 178.53 832.94 171.64 801.1 250.73"/><polygon class="cls-52" points="643.8 306.33 643.8 317.04 633.82 315.02 629.96 311.69 633.82 301.59 643.8 306.33"/><path class="cls-59" d="M651.47,171.65s8.34-.77,12.61,10.28,3.34,75.22,3.34,75.22l-20.77,53.42-12.83-9s9.25-37.09,7.49-56.13S651.47,171.65,651.47,171.65Z"/><path class="cls-65" d="M646.65,315.9s-18.5-5.22-25-11.71c0,0,9.06,10.71,14.6,13.35S646.65,315.9,646.65,315.9Z"/><path class="cls-66" d="M628.46,124.65c1-6.05-4.89-10.53-11-11.23s-11.77-1.5-14.38,1.82c-6.29,8-1.17,25.59-1.17,25.59s2.87,8.26,11,9.51C618.44,151.19,626.67,136,628.46,124.65Z"/><path class="cls-67" d="M631.6,142.45s-2.56,23.22-4.25,28.94-22.28,8.67-21.52,3.17c.59-4.3,5.15-22.21,5.15-22.21Z"/><path class="cls-68" d="M629.63,158.35a1.28,1.28,0,0,1-.44-.24c-1.77-2.67-3-11.18-3-11.18a128.59,128.59,0,0,0-3.11,12.63c-.45,2.91-6,4-11.29,4.24a13.7,13.7,0,0,1-1.26-4,14.81,14.81,0,0,0,.31,4c-.93,0-1.83,0-2.7,0,1.38-5.75,2.83-11.46,2.83-11.46l20.62-9.9S630.71,150.54,629.63,158.35Z"/><path class="cls-69" d="M602.3,152.28a11.42,11.42,0,0,1-3,3.17,12.74,12.74,0,0,1-1.75-8c.68-4.39,3.77-6.35,4-8,0,0,.38,3.87,5.43,5.45s9.81-1.71,12.08-3.38,5.09-3.16,5.59-6.39,2.79-15.76,2.79-15.76.87-2.08,6.06,1.59,4.18,5.71,4.43,10.12-1.48,7.36,1.83,9a8.69,8.69,0,0,1,2.79,12.51c-3.54,5.1-11.06,4.63-12.87,2.17s-3.43-9.31-3.43-9.31A92.53,92.53,0,0,0,623.63,156c-.4,2.65-5.92,3.59-11.2,3.73a12.06,12.06,0,0,1-1.32-3.69,12.49,12.49,0,0,0,.37,3.7,46,46,0,0,1-6.87-.42,7,7,0,0,1-4-2.16A11.14,11.14,0,0,0,602.3,152.28Z"/><path class="cls-70" d="M634.11,120.83c4.81,3.12,4.43,5.72,4.61,9.62.38,5.66-1.39,7.43,1.8,9a9.43,9.43,0,0,1-4,17.38c-2.39.22-5.24-.08-6.77-2.07,1.78,1.65,4.43,1.66,6.62,1.19,8-1.72,9.23-11.54,3.29-14.92-4.21-1.81-2.27-5.62-2.47-10.54-.14-3.64.84-5.53-3.57-9-1.54-1.26-4.75-3.66-6.11-2.18C628.65,117.55,632.3,119.67,634.11,120.83Z"/><path class="cls-66" d="M622.79,130.92a4.65,4.65,0,0,1,4.84-.87c2.83,1.13-.58,8.31-3.16,7.92S622.79,130.92,622.79,130.92Z"/><path class="cls-71" d="M606.3,126.64c-1.31,8.77-.76,7.93-.92,12.27,1,0,2,0,3,0a28.65,28.65,0,0,1-3.57.72C604.88,138,603.46,133.54,606.3,126.64Z"/><path class="cls-72" d="M618.21,128.5a9.49,9.49,0,0,0-5-2.19,29.59,29.59,0,0,0-4.72-.57s1-3.42,3-2.55,2,2.62,4.1,1.78S618.21,128.5,618.21,128.5Z"/><path class="cls-72" d="M598.76,123.43a4.94,4.94,0,0,1,3.71.7,17.49,17.49,0,0,1,2.86,1.82s.9-3.19-.59-3.47-2.22,1.1-3-.57S598.76,123.43,598.76,123.43Z"/><path class="cls-71" d="M601.05,127.17a1.13,1.13,0,1,0,1.3-1.13A1.22,1.22,0,0,0,601.05,127.17Z"/><path class="cls-71" d="M610.36,128.87a1.23,1.23,0,0,0,.9,1.47,1.22,1.22,0,0,0,1.3-1.13,1.13,1.13,0,1,0-2.2-.34Z"/><path class="cls-68" d="M625.12,131.8s2-1.26,2.21.16-1.18,4.15-2.48,4.13S625.12,131.8,625.12,131.8Z"/><path class="cls-21" d="M605,142.51c1.57,2.05,5.15,2.38,8.72-.34a.46.46,0,0,0-.5-.76C612.43,141.56,609.7,144.53,605,142.51Z"/><path class="cls-59" d="M629,162.75l14,3.79-7.65,25.63,2.6,5.46-18,60.82s2.27-46.22,3-61.32S629,162.75,629,162.75Z"/><rect class="cls-73" x="268.25" y="346.66" width="278.87" height="8.79"/><rect class="cls-73" x="284.9" y="355.45" width="7.9" height="155.34"/><rect class="cls-73" x="525.38" y="355.45" width="7.9" height="155.34"/><rect class="cls-73" x="512.73" y="355.45" width="7.9" height="155.34"/><rect class="cls-73" x="302.47" y="355.45" width="7.9" height="155.34"/><rect class="cls-32" x="359.45" y="285.15" width="32.74" height="61.71"/><rect class="cls-74" x="389.26" y="285.15" width="3.12" height="61.71"/><polygon class="cls-75" points="356.73 285.15 392.89 285.15 399.69 272.33 368.19 272.18 356.73 285.15"/><polygon class="cls-76" points="370.31 272.19 358.9 285.15 359.72 285.15 371.12 272.19 370.31 272.19"/><polygon class="cls-76" points="373.45 272.2 362.06 285.15 362.87 285.15 374.26 272.2 373.45 272.2"/><polygon class="cls-76" points="376.59 272.22 365.21 285.15 366.03 285.15 377.4 272.22 376.59 272.22"/><polygon class="cls-76" points="379.73 272.23 368.36 285.15 369.18 285.15 380.54 272.24 379.73 272.23"/><polygon class="cls-76" points="382.87 272.25 371.52 285.15 372.33 285.15 383.68 272.25 382.87 272.25"/><polygon class="cls-76" points="386.01 272.26 374.67 285.15 375.49 285.15 386.82 272.27 386.01 272.26"/><polygon class="cls-76" points="389.15 272.28 377.82 285.15 378.64 285.15 389.96 272.28 389.15 272.28"/><polygon class="cls-76" points="392.29 272.29 380.98 285.15 381.8 285.15 393.1 272.3 392.29 272.29"/><polygon class="cls-76" points="395.43 272.31 384.13 285.15 384.95 285.15 396.24 272.31 395.43 272.31"/><polygon class="cls-76" points="398.57 272.32 387.28 285.15 388.1 285.15 399.38 272.33 398.57 272.32"/><polygon class="cls-75" points="401.74 250.98 390.18 263.97 439.38 263.97 450.54 251.15 401.74 250.98"/><rect class="cls-32" x="392.19" y="263.97" width="47.2" height="82.89"/><rect class="cls-74" x="439.38" y="263.97" width="16.78" height="82.89"/><polygon class="cls-77" points="456.16 263.97 439.38 263.97 450.54 251.15 456.16 256.77 456.16 263.97"/><polygon class="cls-76" points="448.65 251.14 437.36 263.97 438.18 263.97 449.46 251.15 448.65 251.14"/><polygon class="cls-76" points="445.17 251.13 433.87 263.97 434.69 263.97 445.98 251.13 445.17 251.13"/><polygon class="cls-76" points="441.68 251.12 430.38 263.97 431.19 263.97 442.5 251.12 441.68 251.12"/><polygon class="cls-76" points="438.2 251.11 426.88 263.97 427.7 263.97 439.02 251.11 438.2 251.11"/><polygon class="cls-76" points="434.72 251.09 423.39 263.97 424.21 263.97 435.53 251.1 434.72 251.09"/><polygon class="cls-76" points="431.24 251.08 419.9 263.97 420.71 263.97 432.05 251.09 431.24 251.08"/><polygon class="cls-76" points="427.76 251.07 416.41 263.97 417.22 263.97 428.57 251.07 427.76 251.07"/><polygon class="cls-76" points="424.27 251.06 412.91 263.97 413.73 263.97 425.09 251.06 424.27 251.06"/><polygon class="cls-76" points="420.79 251.05 409.42 263.97 410.24 263.97 421.61 251.05 420.79 251.05"/><polygon class="cls-76" points="417.31 251.03 405.93 263.97 406.75 263.97 418.13 251.04 417.31 251.03"/><polygon class="cls-76" points="413.83 251.02 402.44 263.97 403.25 263.97 414.64 251.02 413.83 251.02"/><polygon class="cls-76" points="410.35 251.01 398.94 263.97 399.76 263.97 411.16 251.01 410.35 251.01"/><polygon class="cls-76" points="406.87 251 395.45 263.97 396.27 263.97 407.68 251 406.87 251"/><polygon class="cls-76" points="403.38 250.99 391.96 263.97 392.77 263.97 404.2 250.99 403.38 250.99"/><rect class="cls-75" x="374.26" y="288.67" width="1.56" height="6.19"/><rect class="cls-75" x="376.63" y="288.67" width="1.56" height="6.19"/><rect class="cls-75" x="378.99" y="288.67" width="1.56" height="6.19"/><rect class="cls-75" x="381.35" y="288.67" width="1.55" height="6.19"/><rect class="cls-75" x="383.71" y="288.67" width="1.56" height="6.19"/><rect class="cls-75" x="386.07" y="288.67" width="1.56" height="6.19"/><rect class="cls-75" x="374.26" y="296.11" width="1.56" height="6.19"/><rect class="cls-75" x="376.63" y="296.11" width="1.56" height="6.19"/><rect class="cls-75" x="378.99" y="296.11" width="1.56" height="6.19"/><rect class="cls-75" x="381.35" y="296.11" width="1.55" height="6.19"/><rect class="cls-75" x="383.71" y="296.11" width="1.56" height="6.19"/><rect class="cls-75" x="386.07" y="296.11" width="1.56" height="6.19"/><rect class="cls-75" x="374.26" y="303.56" width="1.56" height="6.19"/><rect class="cls-75" x="376.63" y="303.56" width="1.56" height="6.19"/><rect class="cls-75" x="378.99" y="303.56" width="1.56" height="6.19"/><rect class="cls-75" x="381.35" y="303.56" width="1.55" height="6.19"/><rect class="cls-75" x="383.71" y="303.56" width="1.56" height="6.19"/><rect class="cls-75" x="386.07" y="303.56" width="1.56" height="6.19"/><rect class="cls-75" x="374.26" y="311" width="1.56" height="6.19"/><rect class="cls-75" x="376.63" y="311" width="1.56" height="6.19"/><rect class="cls-75" x="378.99" y="311" width="1.56" height="6.19"/><rect class="cls-75" x="381.35" y="311" width="1.55" height="6.19"/><rect class="cls-75" x="383.71" y="311" width="1.56" height="6.19"/><rect class="cls-75" x="386.07" y="311" width="1.56" height="6.19"/><rect class="cls-75" x="374.26" y="318.44" width="1.56" height="6.19"/><rect class="cls-75" x="376.63" y="318.44" width="1.56" height="6.19"/><rect class="cls-75" x="378.99" y="318.44" width="1.56" height="6.19"/><rect class="cls-75" x="381.35" y="318.44" width="1.55" height="6.19"/><rect class="cls-75" x="383.71" y="318.44" width="1.56" height="6.19"/><rect class="cls-75" x="386.07" y="318.44" width="1.56" height="6.19"/><rect class="cls-75" x="374.26" y="325.88" width="1.56" height="6.19"/><rect class="cls-75" x="376.63" y="325.88" width="1.56" height="6.19"/><rect class="cls-75" x="378.99" y="325.88" width="1.56" height="6.19"/><rect class="cls-75" x="381.35" y="325.88" width="1.55" height="6.19"/><rect class="cls-75" x="383.71" y="325.88" width="1.56" height="6.19"/><rect class="cls-75" x="386.07" y="325.88" width="1.56" height="6.19"/><rect class="cls-75" x="374.26" y="333.32" width="1.56" height="6.19"/><rect class="cls-75" x="376.63" y="333.32" width="1.56" height="6.19"/><rect class="cls-75" x="378.99" y="333.32" width="1.56" height="6.19"/><rect class="cls-75" x="381.35" y="333.32" width="1.55" height="6.19"/><rect class="cls-75" x="383.71" y="333.32" width="1.56" height="6.19"/><rect class="cls-75" x="386.07" y="333.32" width="1.56" height="6.19"/><rect class="cls-75" x="395.75" y="266.96" width="2.33" height="9.28"/><rect class="cls-75" x="399.29" y="266.96" width="2.33" height="9.28"/><rect class="cls-75" x="402.83" y="266.96" width="2.33" height="9.28"/><rect class="cls-75" x="406.37" y="266.96" width="2.33" height="9.28"/><rect class="cls-75" x="409.92" y="266.96" width="2.33" height="9.28"/><rect class="cls-75" x="413.46" y="266.96" width="2.33" height="9.28"/><rect class="cls-75" x="395.75" y="278.12" width="2.33" height="9.28"/><rect class="cls-75" x="399.29" y="278.12" width="2.33" height="9.28"/><rect class="cls-75" x="402.83" y="278.12" width="2.33" height="9.28"/><rect class="cls-75" x="406.37" y="278.12" width="2.33" height="9.28"/><rect class="cls-75" x="409.92" y="278.12" width="2.33" height="9.28"/><rect class="cls-75" x="413.46" y="278.12" width="2.33" height="9.28"/><rect class="cls-75" x="395.75" y="289.27" width="2.33" height="9.28"/><rect class="cls-75" x="399.29" y="289.27" width="2.33" height="9.28"/><rect class="cls-75" x="402.83" y="289.27" width="2.33" height="9.28"/><rect class="cls-75" x="406.37" y="289.27" width="2.33" height="9.28"/><rect class="cls-75" x="409.92" y="289.27" width="2.33" height="9.28"/><rect class="cls-75" x="413.46" y="289.27" width="2.33" height="9.28"/><rect class="cls-75" x="395.75" y="300.42" width="2.33" height="9.27"/><rect class="cls-75" x="399.29" y="300.42" width="2.33" height="9.27"/><rect class="cls-75" x="402.83" y="300.42" width="2.33" height="9.27"/><rect class="cls-75" x="406.37" y="300.42" width="2.33" height="9.27"/><rect class="cls-75" x="409.92" y="300.42" width="2.33" height="9.27"/><rect class="cls-75" x="413.46" y="300.42" width="2.33" height="9.27"/><rect class="cls-75" x="395.75" y="311.58" width="2.33" height="9.28"/><rect class="cls-75" x="399.29" y="311.58" width="2.33" height="9.28"/><rect class="cls-75" x="402.83" y="311.58" width="2.33" height="9.28"/><rect class="cls-75" x="406.37" y="311.58" width="2.33" height="9.28"/><rect class="cls-75" x="409.92" y="311.58" width="2.33" height="9.28"/><rect class="cls-75" x="413.46" y="311.58" width="2.33" height="9.28"/><rect class="cls-75" x="395.75" y="322.73" width="2.33" height="9.28"/><rect class="cls-75" x="399.29" y="322.73" width="2.33" height="9.28"/><rect class="cls-75" x="402.83" y="322.73" width="2.33" height="9.28"/><rect class="cls-75" x="406.37" y="322.73" width="2.33" height="9.28"/><rect class="cls-75" x="409.92" y="322.73" width="2.33" height="9.28"/><rect class="cls-75" x="413.46" y="322.73" width="2.33" height="9.28"/><rect class="cls-75" x="395.75" y="333.88" width="2.33" height="9.28"/><rect class="cls-75" x="399.29" y="333.88" width="2.33" height="9.28"/><rect class="cls-75" x="402.83" y="333.88" width="2.33" height="9.28"/><rect class="cls-75" x="406.37" y="333.88" width="2.33" height="9.28"/><rect class="cls-75" x="409.92" y="333.88" width="2.33" height="9.28"/><rect class="cls-75" x="413.46" y="333.88" width="2.33" height="9.28"/><rect class="cls-75" x="418.55" y="266.96" width="2.33" height="9.28"/><rect class="cls-75" x="422.09" y="266.96" width="2.33" height="9.28"/><rect class="cls-75" x="425.63" y="266.96" width="2.33" height="9.28"/><rect class="cls-75" x="429.18" y="266.96" width="2.33" height="9.28"/><rect class="cls-75" x="432.72" y="266.96" width="2.33" height="9.28"/><rect class="cls-75" x="436.26" y="266.96" width="2.33" height="9.28"/><rect class="cls-75" x="418.55" y="278.12" width="2.33" height="9.28"/><rect class="cls-75" x="422.09" y="278.12" width="2.33" height="9.28"/><rect class="cls-75" x="425.63" y="278.12" width="2.33" height="9.28"/><rect class="cls-75" x="429.18" y="278.12" width="2.33" height="9.28"/><rect class="cls-75" x="432.72" y="278.12" width="2.33" height="9.28"/><rect class="cls-75" x="436.26" y="278.12" width="2.33" height="9.28"/><rect class="cls-75" x="418.55" y="289.27" width="2.33" height="9.28"/><rect class="cls-75" x="422.09" y="289.27" width="2.33" height="9.28"/><rect class="cls-75" x="425.63" y="289.27" width="2.33" height="9.28"/><rect class="cls-75" x="429.18" y="289.27" width="2.33" height="9.28"/><rect class="cls-75" x="432.72" y="289.27" width="2.33" height="9.28"/><rect class="cls-75" x="436.26" y="289.27" width="2.33" height="9.28"/><rect class="cls-75" x="418.55" y="300.42" width="2.33" height="9.27"/><rect class="cls-75" x="422.09" y="300.42" width="2.33" height="9.27"/><rect class="cls-75" x="425.63" y="300.42" width="2.33" height="9.27"/><rect class="cls-75" x="429.18" y="300.42" width="2.33" height="9.27"/><rect class="cls-75" x="432.72" y="300.42" width="2.33" height="9.27"/><rect class="cls-75" x="436.26" y="300.42" width="2.33" height="9.27"/><rect class="cls-75" x="418.55" y="311.58" width="2.33" height="9.28"/><rect class="cls-75" x="422.09" y="311.58" width="2.33" height="9.28"/><rect class="cls-75" x="425.63" y="311.58" width="2.33" height="9.28"/><rect class="cls-75" x="429.18" y="311.58" width="2.33" height="9.28"/><rect class="cls-75" x="432.72" y="311.58" width="2.33" height="9.28"/><rect class="cls-75" x="436.26" y="311.58" width="2.33" height="9.28"/><rect class="cls-75" x="418.55" y="322.73" width="2.33" height="9.28"/><rect class="cls-75" x="422.09" y="322.73" width="2.33" height="9.28"/><rect class="cls-75" x="425.63" y="322.73" width="2.33" height="9.28"/><rect class="cls-75" x="429.18" y="322.73" width="2.33" height="9.28"/><rect class="cls-75" x="432.72" y="322.73" width="2.33" height="9.28"/><rect class="cls-75" x="436.26" y="322.73" width="2.33" height="9.28"/><rect class="cls-75" x="418.55" y="333.88" width="2.33" height="9.28"/><rect class="cls-75" x="422.09" y="333.88" width="2.33" height="9.28"/><rect class="cls-75" x="425.63" y="333.88" width="2.33" height="9.28"/><rect class="cls-75" x="429.18" y="333.88" width="2.33" height="9.28"/><rect class="cls-75" x="432.72" y="333.88" width="2.33" height="9.28"/><rect class="cls-75" x="436.26" y="333.88" width="2.33" height="9.28"/><polygon class="cls-76" points="487.23 346.66 474.58 346.66 474.58 243.97 487.23 238.61 487.23 346.66"/><polygon class="cls-32" points="500.6 251.09 487.23 238.61 487.23 346.66 500.91 346.66 500.6 251.09"/><rect class="cls-78" x="466.97" y="246.79" width="7.61" height="99.87"/><rect class="cls-75" x="445.68" y="243.42" width="22.07" height="103.24"/><rect class="cls-77" x="441.18" y="242.67" width="28.17" height="0.97"/><rect class="cls-77" x="467.75" y="246.3" width="6.83" height="0.97"/><polygon class="cls-77" points="501.1 251.88 487.13 239.18 474.77 244.42 474.39 243.52 487.32 238.04 501.75 251.16 501.1 251.88"/><rect class="cls-77" x="481.29" y="245.25" width="3.18" height="6.89"/><rect class="cls-77" x="478.04" y="259.89" width="2.87" height="6.07"/><rect class="cls-77" x="481.29" y="273.68" width="1.59" height="6.3"/><rect class="cls-79" x="457.95" y="248.85" width="5.24" height="5.97"/><rect class="cls-79" x="447.21" y="257.14" width="21.13" height="1.95"/><rect class="cls-79" x="447.38" y="262.47" width="21.13" height="1.95"/><rect class="cls-79" x="447.56" y="267.79" width="21.13" height="1.95"/><rect class="cls-79" x="447.74" y="273.12" width="21.13" height="1.95"/><rect class="cls-79" x="447.92" y="278.44" width="21.13" height="1.95"/><rect class="cls-79" x="448.1" y="283.76" width="21.13" height="1.95"/><rect class="cls-79" x="448.28" y="289.08" width="21.13" height="1.95"/><rect class="cls-79" x="448.46" y="294.41" width="21.13" height="1.95"/><rect class="cls-79" x="448.63" y="299.73" width="21.13" height="1.95"/><rect class="cls-79" x="448.81" y="305.06" width="21.13" height="1.95"/><rect class="cls-79" x="448.99" y="310.38" width="21.13" height="1.95"/><rect class="cls-79" x="449.17" y="315.7" width="21.13" height="1.95"/><rect class="cls-79" x="449.35" y="321.03" width="21.13" height="1.95"/><rect class="cls-79" x="449.52" y="326.35" width="21.13" height="1.95"/><rect class="cls-79" x="449.7" y="331.67" width="21.13" height="1.95"/><rect class="cls-79" x="449.88" y="337" width="21.13" height="1.95"/><rect class="cls-80" x="257.09" y="345.37" width="301.19" height="5.68"/></g></g></svg>