<?xml version="1.0" encoding="utf-8"?>
<!-- Generator: Adobe Illustrator 24.3.0, SVG Export Plug-In . SVG Version: 6.00 Build 0)  -->
<svg version="1.1" id="Layer_1" xmlns="http://www.w3.org/2000/svg" xmlns:xlink="http://www.w3.org/1999/xlink" x="0px" y="0px"
	 viewBox="0 0 911.3 530.2" style="enable-background:new 0 0 911.3 530.2;" xml:space="preserve">
<style type="text/css">
	.st0{fill:#FCF4EA;}
	.st1{fill:#E2E5FD;}
	.st2{fill:#9298C4;}
	.st3{fill:#777EB5;}
	.st4{fill:#ADB2D3;}
	.st5{fill:#C5CCFC;}
	.st6{fill:#54688B;}
	.st7{fill:#333643;}
	.st8{fill:#4C5063;}
	.st9{fill:#1B2E96;}
	.st10{fill:#7C8BDE;}
	.st11{fill:#6A0084;}
	.st12{fill:#7D87B7;}
	.st13{fill:#FF8D8D;}
	.st14{fill:#979FC5;}
	.st15{fill:#5D68A7;}
	.st16{fill:#F98A8A;}
	.st17{fill:#EA7373;}
	.st18{fill:#D86666;}
	.st19{fill:#B8B8E0;}
	.st20{fill:#777CAA;}
	.st21{fill:#2B3278;}
	.st22{fill:#E3E4FF;}
	.st23{fill:#FFFFFF;}
	.st24{fill:#F2B90C;}
	.st25{fill:#B65F2E;}
	.st26{fill:#F7931E;}
	.st27{fill:#591914;}
	.st28{fill:#B96E16;}
	.st29{fill:#F8E000;}
	.st30{fill:#3C1709;}
	.st31{fill:#363A68;}
	.st32{fill:#260E0D;}
	.st33{fill:#2F1954;}
	.st34{fill:#0E0E0E;}
	.st35{fill:#F1A97E;}
	.st36{fill:#FC7575;}
	.st37{fill:#FD5E5A;}
	.st38{fill:#121841;}
	.st39{fill:#2F499F;}
	.st40{fill:#555DA2;}
	.st41{fill:#1E3340;}
	.st42{fill:#F47B50;}
	.st43{fill:#B5441B;}
	.st44{fill:#F15A24;}
	.st45{fill:#792D12;}
	.st46{fill:#6F81A6;}
	.st47{fill:#6E0054;}
	.st48{fill:#464F7C;}
	.st49{fill:#5D69A5;}
	.st50{fill:#C20095;}
	.st51{fill:#F992E1;}
	.st52{fill:#D6E9FA;}
	.st53{fill:#99C8F2;}
	.st54{fill:#220D58;}
	.st55{fill:#2D1175;}
	.st56{fill:#494C62;}
	.st57{fill:#252631;}
	.st58{fill:#384153;}
	.st59{fill:#F27F3D;}
	.st60{fill:#13232D;}
	.st61{fill:#53260D;}
	.st62{opacity:0.42;fill:#FFDA88;enable-background:new    ;}
</style>
<g>
	<g id="Layer_2_1_">
		<g id="_Layer_">
			<path class="st0" d="M175,506.3c0,0,96.4-179.6,273.5-220.9c94.1-22,133.9-113,205.8-126.8c71.9-13.8,95.3,109,107.9,203.2
				s-6.8,147.8-6.8,147.8L175,506.3z"/>
			<polygon class="st1" points="173,495.7 173,311.5 236.1,311.5 236.1,161 313.5,161 313.5,258.2 385.1,258.2 385.1,420.4 
				465.2,420.4 465.2,303 538.8,303 538.8,507 173,507 			"/>
			<path class="st2" d="M313.2,372.1v15.1h244.7v-15.1H313.2z M332.4,383.6h-8.7c-1.9-0.1-3.3-1.6-3.2-3.3c0.1-1.6,1.5-2.8,3.2-2.9
				h8.7c1.9,0.1,3.3,1.6,3.2,3.3C335.5,382.3,334.1,383.5,332.4,383.6L332.4,383.6z M356.4,383.6h-8.7c-1.9-0.1-3.3-1.6-3.2-3.3
				c0.1-1.6,1.5-2.8,3.2-2.9h8.7c1.9,0.1,3.3,1.6,3.2,3.3C359.5,382.3,358.1,383.5,356.4,383.6L356.4,383.6z M380.4,383.6h-8.7
				c-1.9,0.1-3.4-1.2-3.5-2.9c-0.1-1.7,1.3-3.2,3.2-3.3c0.1,0,0.2,0,0.4,0h8.7c1.9,0.1,3.3,1.6,3.2,3.3
				C383.5,382.3,382.1,383.5,380.4,383.6L380.4,383.6z M404.4,383.6h-8.7c-1.9,0.1-3.4-1.2-3.5-2.9c-0.1-1.7,1.3-3.2,3.2-3.3
				c0.1,0,0.2,0,0.4,0h8.7c1.9,0.1,3.3,1.6,3.2,3.3C407.5,382.3,406.1,383.5,404.4,383.6L404.4,383.6z M428.4,383.6h-8.7
				c-1.9,0.1-3.4-1.2-3.5-2.9c-0.1-1.7,1.3-3.2,3.2-3.3c0.1,0,0.2,0,0.4,0h8.7c1.9-0.1,3.4,1.2,3.5,2.9c0.1,1.7-1.3,3.2-3.2,3.3
				C428.6,383.6,428.5,383.6,428.4,383.6z M522.5,383.6h-8.7c-1.9,0.1-3.4-1.2-3.5-2.9c-0.1-1.7,1.3-3.2,3.2-3.3c0.1,0,0.2,0,0.4,0
				h8.7c1.9-0.1,3.4,1.2,3.5,2.9c0.1,1.7-1.3,3.2-3.2,3.3C522.7,383.6,522.6,383.6,522.5,383.6z M546.5,383.6h-8.7
				c-1.9,0.1-3.4-1.2-3.5-2.9c-0.1-1.7,1.3-3.2,3.2-3.3c0.1,0,0.2,0,0.4,0h8.7c1.9-0.1,3.4,1.2,3.5,2.9c0.1,1.7-1.3,3.2-3.2,3.3
				C546.7,383.6,546.6,383.6,546.5,383.6z"/>
			<rect x="313.2" y="372.1" class="st3" width="244.6" height="2.1"/>
			<rect x="302.2" y="363.9" class="st2" width="263.1" height="8.2"/>
			<rect x="303.8" y="387.1" class="st2" width="261.5" height="8.4"/>
			<rect x="303.8" y="387.1" class="st4" width="261.5" height="2"/>
			<rect x="192.5" y="393.5" class="st5" width="218.7" height="120"/>
			<rect x="344.7" y="393.5" class="st1" width="66.6" height="120"/>
			<rect x="462.4" y="393.5" class="st5" width="191.2" height="120"/>
			<rect x="565.3" y="393.5" class="st1" width="88.3" height="120"/>
			<path class="st6" d="M762,513.6c0,9.1-143-4.5-318.2,8.3c-197.6,14.4-330.8,9.2-318.2-8.3c5.5-7.6,142-20.7,317.8-20.7
				S762,504.4,762,513.6z"/>
			<polygon class="st7" points="370.1,337.9 317.1,354.8 334.4,246.4 			"/>
			<path class="st8" d="M353.9,489l-3.2,14.8c0,0,34.4,2.3,34.4,0.9c0-1.4-18-5.7-20.1-7.6c-3-2.8-2-5.5-2-5.5L353.9,489z"/>
			<polygon class="st9" points="378.6,315.4 378.6,348.2 366.8,492.9 349.7,491.4 347.9,396 357.5,313.8 			"/>
			<path class="st8" d="M332.2,491.1c0,0,2,6.9,2,11.9c0,5,17,19,20.4,15.9c3.4-3.1-9-26.1-9-26.1l-0.9-3.9L332.2,491.1z"/>
			<path class="st10" d="M371.8,313.8l-4.1,32.9c0,0-26.7,117.5-19,147.7h-20.4l-4.4-143.9l9.8-34.6L371.8,313.8z"/>
			<path class="st11" d="M364.9,225.9c0,0,13.7,21.3,13.7,31.7c0,10.4,5,51,0,65.9c-4.1,12.1-28.9,15.1-50.9-5.1
				c-8.1-7.5,8.8-41.5,8.8-41.5l-12.6-51.5l22.1-6.6C346,218.7,354.7,232.4,364.9,225.9z"/>
			<polygon class="st12" points="336.4,221.5 323.9,225.2 321.9,285.7 303.9,346.7 317.1,354.8 352.8,298.3 348.4,247.4 			"/>
			<path class="st12" d="M377.9,237.7l-13.1-11.9c0,0,12.5,25.7,12.5,37.5c0,11.8,1.2,70.7,1.2,70.7s6.3-16.8,6.3-32.7
				S377.9,237.7,377.9,237.7z"/>
			<polygon class="st13" points="330.9,338.6 330.9,347.6 340.1,345.9 343.6,343.1 340.1,334.6 			"/>
			<path class="st14" d="M323.9,225.2c0,0-7.6-0.7-11.5,8.6c-3.9,9.3-3.1,63.3-3.1,63.3l19,45l11.7-7.6c0,0-8.5-31.2-6.9-47.2
				C334.8,271.3,323.9,225.2,323.9,225.2z"/>
			<path class="st15" d="M328.3,346.6c0,0,16.9-4.4,22.9-9.9c0,0-8.3,9-13.4,11.2S328.3,346.6,328.3,346.6z"/>
			<path class="st16" d="M345,185.6c-0.9-5.1,4.5-8.9,10-9.4s10.8-1.3,13.1,1.5c5.8,6.7,1.1,21.5,1.1,21.5s-2.6,7-10,8
				C354.2,208,346.6,195.2,345,185.6z"/>
			<path class="st17" d="M342.1,200.6c0,0,2.4,19.5,3.9,24.4s20.4,7.3,19.7,2.7C365.1,224,361,209,361,209L342.1,200.6z"/>
			<path class="st18" d="M343.9,214c0.1,0,0.3-0.1,0.4-0.2c1.6-2.2,2.7-9.4,2.7-9.4s2.2,6.8,2.9,10.6c0.4,2.4,5.5,3.4,10.3,3.6
				c0.6-1.1,1-2.2,1.2-3.4c0.1,1.1,0,2.3-0.3,3.4c0.9,0,1.7,0,2.5,0c-1.2-4.8-2.6-9.7-2.6-9.7l-18.9-8.3
				C342.1,200.7,342.9,207.4,343.9,214z"/>
			<path class="st19" d="M368.9,208.9c0.7,1.1,1.7,2,2.8,2.7c1.3-2,1.9-4.4,1.6-6.8c-0.6-3.7-3.4-5.3-3.7-6.7c0,0-0.4,3.2-5,4.6
				s-9-1.4-11.1-2.8s-4.6-2.7-5.1-5.4c-0.5-2.7-2.6-13.3-2.6-13.3s-0.8-1.7-5.5,1.3c-4.8,3.1-3.8,4.8-4,8.5
				c-0.2,3.7,1.4,6.2-1.7,7.6c-3.8,2.1-5.1,6.6-2.9,10.1c0.1,0.2,0.2,0.3,0.3,0.5c3.2,4.3,10.1,3.9,11.8,1.8
				c1.6-2.1,3.1-7.8,3.1-7.8c1,2.9,1.8,5.9,2.4,8.9c0.4,2.2,5.4,3,10.2,3.1c0.6-1,1-2,1.2-3.1c0.1,1-0.1,2.1-0.3,3.1
				c2.1,0,4.2-0.1,6.3-0.3c1.4-0.2,2.7-0.9,3.7-1.8C369.6,211.8,369.1,210.4,368.9,208.9z"/>
			<path class="st20" d="M339.9,182.4c-4.4,2.6-4.1,4.8-4.2,8.1c-0.4,4.8,1.3,6.3-1.6,7.6c-4,2.3-5.3,7.2-2.7,10.9
				c1.4,2.1,3.8,3.4,6.4,3.7c2.2,0.2,4.8-0.1,6.2-1.7c-1.6,1.4-4.1,1.4-6.1,1c-7.3-1.4-8.4-9.7-3-12.6c3.9-1.5,2.1-4.7,2.3-8.9
				c0.1-3.1-0.8-4.7,3.3-7.5c1.4-1.1,4.4-3.1,5.6-1.8C344.9,179.7,341.5,181.4,339.9,182.4z"/>
			<path class="st16" d="M350.2,190.9c-1.2-1-2.9-1.3-4.4-0.7c-2.6,0.9,0.5,7,2.9,6.7C351,196.5,350.2,190.9,350.2,190.9z"/>
			<path class="st21" d="M365.3,187.3c1.2,7.4,0.7,6.7,0.9,10.3c-0.9,0-1.8,0-2.7,0c1.1,0.3,2.2,0.5,3.3,0.6
				C366.6,196.9,367.9,193.1,365.3,187.3z"/>
			<path class="st22" d="M354.4,188.9c1.3-1,2.9-1.7,4.6-1.8c1.4-0.3,2.9-0.4,4.3-0.5c0,0-0.9-2.9-2.8-2.1s-1.8,2.2-3.8,1.5
				C354.8,185.2,354.4,188.9,354.4,188.9z"/>
			<path class="st22" d="M372.2,184.6c-1.2-0.2-2.4,0-3.4,0.6c-0.9,0.4-1.8,0.9-2.6,1.5c0,0-0.8-2.7,0.5-2.9c1.4-0.2,2,0.9,2.8-0.5
				S372.2,184.6,372.2,184.6z"/>
			<path class="st21" d="M370.1,187.8c0,0.5-0.5,0.9-1,0.9s-1-0.4-1-0.9c0-0.4,0.3-0.8,0.8-0.9C369.5,186.8,370,187.2,370.1,187.8z"
				/>
			<path class="st21" d="M361.5,189.2c0.1,0.5-0.3,1-0.8,1.1c-0.6,0.1-1.1-0.3-1.2-0.8c-0.1-0.5,0.3-1,0.8-1.1
				C360.9,188.3,361.5,188.7,361.5,189.2z"/>
			<path class="st18" d="M348,191.7c0,0-1.9-1.1-2,0.1c-0.1,1.2,1.1,3.5,2.3,3.5C349.5,195.3,348,191.7,348,191.7z"/>
			<path class="st23" d="M366.4,200.7c-1.4,1.7-4.7,2-8-0.3c-0.2-0.1-0.2-0.3-0.1-0.5s0.4-0.2,0.6-0.1
				C359.7,199.9,362.2,202.4,366.4,200.7z"/>
			<path class="st14" d="M344.5,217.7l-12.9,3.2l7,21.6l-2.4,4.6l16.5,51.2c0,0-2.1-38.9-2.7-51.6
				C349.4,234,344.5,217.7,344.5,217.7z"/>
			<path class="st24" d="M346.6,165.2c0,0.1,1.5,12.3,1.5,12.2c5.3-0.4,12.7-0.6,18-0.5c-0.3-2.1-0.7-5.4-2.4-7
				c-2.3-2.2-6.4-5.7-10.4-6C349.9,163.6,348.2,164.7,346.6,165.2z"/>
			<path class="st24" d="M347.2,164.9c0,0.1,1.6,12.6,1.6,12.4c5.6-0.4,15.7-1,21.3-1c-0.3-2.1-1-4.1-2.1-6
				c-1.3-2.3-3.9-4.1-6.3-5.4c-2.3-1.2-4.9-1.7-7.6-1.6c-2.1,0.1-4.3,0.5-6.3,1.2C347.6,164.7,347.4,164.8,347.2,164.9z"/>
			<path class="st25" d="M343.9,165.4l2.6,12.2c0.1,0,7.2-0.7,17-0.7c0-3.1-0.2-6.5-2.4-9c-2.1-2.5-5.4-3.9-8.8-4
				c-1.5,0-3,0.3-4.5,0.8C346.5,164.8,345.2,165.1,343.9,165.4z"/>
			<path class="st26" d="M334.4,182.2c3.5-5,18.9-5.2,25.8-5.2c0.1-1.6,0.5-5.7-0.7-7.6c-4.4-7-20.5-6.4-24.6,3.6
				C334.1,175,334.3,179.6,334.4,182.2z"/>
			<path class="st27" d="M342.5,169.3L342.5,169.3l2.4-0.5c0.1,0,0.2-0.1,0.1-0.2c0,0,0,0,0,0c0-0.1-0.1-0.2-0.2-0.2c0,0,0,0,0,0
				l-2.4,0.6c-0.1,0-0.2,0.1-0.1,0.2c0,0,0,0,0,0C342.3,169.2,342.4,169.3,342.5,169.3C342.5,169.3,342.5,169.3,342.5,169.3z"/>
			<path class="st27" d="M342.8,170.5L342.8,170.5l2.2-0.6c0.1,0,0.1-0.1,0.1-0.2c0-0.1-0.1-0.1-0.2-0.1l-2.2,0.5
				c-0.1,0-0.1,0.1-0.1,0.2C342.6,170.4,342.7,170.5,342.8,170.5z"/>
			<path class="st27" d="M337.3,171L337.3,171l2.3-0.8c0.1,0,0.1-0.1,0.1-0.2c0-0.1-0.1-0.1-0.2-0.1l0,0l-2.2,0.8
				c-0.1,0-0.1,0.1-0.1,0.2c0,0,0,0,0,0C337.2,171,337.2,171,337.3,171z"/>
			<path class="st27" d="M337.3,172L337.3,172l2.3-0.7c0.1,0,0.1-0.1,0.1-0.2c0-0.1-0.1-0.1-0.2-0.1l-2.2,0.7
				c-0.1,0-0.1,0.1-0.1,0.2c0,0,0,0,0,0C337.2,172,337.2,172,337.3,172z"/>
			<path class="st27" d="M340.5,170c0,0.2,0.2,0.4,0.5,0.4c0.3,0,0.5-0.2,0.5-0.5c0-0.2-0.2-0.4-0.5-0.4
				C340.7,169.5,340.5,169.7,340.5,170C340.5,170,340.5,170,340.5,170z"/>
			<path class="st28" d="M334.4,182.2L334.4,182.2c3.4-5.1,17.8-5.1,24.5-5.2c3.7-0.1,14.9-1.2,14.9,1.7c0,1.1-1.5,2-3.8,2.4
				c-0.2-0.4-1.5-0.9-2.5-0.9c-8.1,0.1-21.9,0.5-29.1,3.9c-1.3,0.8-2.2,1.9-2.6,3.3C332.7,186.6,333.2,183.9,334.4,182.2z"/>
			<path class="st29" d="M334.2,182c4.6-7.4,36.7-8.2,40.5-5.1c1.6,1.3-0.4,3.2-4.1,4.1c1.1-0.3,2-0.9,2.8-1.6
				c3.1-4.5-26.8-2.2-34.2,0.2c-1.7,0.5-3.2,1.4-4.4,2.7l0,0c-0.1,0.1-1.6,2.6-0.5,4.4C331.9,185.2,334.2,182,334.2,182z"/>
			<path class="st30" d="M285.7,198.6c0,0-11.9,5-20.6,7.1c-8.6,2.1-10.7,4.3-12.2,3.9s2.7-6.7,2.7-6.7l15.8-7.6l13.5-2.1
				L285.7,198.6z"/>
			<path class="st31" d="M294.6,254.8c0,0,3.2,17.1,13.1,28.6c7.5,8.6,23,18.2,23,18.2l-8.8,8.7l-24.3-18.1L294.6,254.8z"/>
			<polygon class="st32" points="281.2,238.9 261.7,238.9 262.4,296.7 288.3,298.2 			"/>
			<path class="st32" d="M303.1,515.9c11,0,10.7,4.1,10.7,4.1h-32.2c0,0,1.6-12.5,1.8-15.5h7.6C291.9,508.1,294.7,515.9,303.1,515.9
				z"/>
			<path class="st32" d="M249.3,517.4c10,0,12.1-10.9,12.3-12.9h7.2v0.9c0,1.4,1.9,16,1.9,16h-32.1
				C238.6,521.4,238.3,517.4,249.3,517.4z"/>
			<path class="st33" d="M252.2,438.7l-10.3-78.3l2.9-23.2h56.6l0.4,20.4l5.9,79.5c0,0-14.8,66.2-14.5,67.3h-10.7
				c0-0.2,3-72.6,3-72.6l-12.2-64.5l-4.8,67.6c0,0,2.2,61,2.2,69.4h-10C260.8,504.3,252.2,438.7,252.2,438.7z"/>
			<path class="st34" d="M244.4,340.3l0.4-3h56.6l0,2.7l-11.9,3.6c-9.6,3-20,3.2-29.8,0.7L244.4,340.3z"/>
			<path class="st35" d="M240.9,254.2c6.1-6.2,20.4-16.2,36.1-13.8l16.4,6.6l4.8,31.9l4.3,60.7l-58.4,0.6l-5.6-59.1
				C238.5,281.1,234.8,260.5,240.9,254.2z"/>
			<path class="st36" d="M279,226.2c0,0,0.2,12.5,1.5,18.8c0.6,2.4-0.7,4.8-3.1,5.9c-2.2,0.8-4.5,1-6.8,0.6
				c-7.4-1.3-7.6-8.7-7.6-8.7l2.5-22.7L279,226.2z"/>
			<path class="st37" d="M265.5,220l13.5,6.2c0,0,0.1,4.6,0.4,9.6c-3.5,0.2-7.9-1.6-12.6-7.1c-0.7-0.8-1.3-1.6-1.9-2.4L265.5,220z"
				/>
			<path class="st36" d="M278.1,194.3c3.1,2.6,5.3,5.8,6.6,9.5c2,5.9,3.7,10.2,3.7,10.2l-2.1,1.3c0,0,1.7,8.3,0.4,11.1
				c-2,4.3-10.4,7.8-20-1.9s-10.3-18.2-8.7-22.3S274.4,192.1,278.1,194.3z"/>
			<path class="st38" d="M284.7,198.7c-7.5-2.6-3.3-9.3-23-4.3c-0.9,0.9-2.1,1.6-3.4,1.9c-3.6,0.6-3.2,7.9-3.2,7.9s-2.1,1.5-0.6,6.8
				c1.5,5.3,10.3,13.4,10.3,15.9c0,0,2.1-3.2,0.4-8.4s-1.7-8.2,0.1-8.2c1.9,0-1.5-6.9-1.5-6.9c2.9-2.2,6.7-2.9,10.4-2
				c6.1,1.5,8.2-0.8,7-2C282.4,199.4,283.6,199.2,284.7,198.7z"/>
			<path class="st36" d="M266.5,213.9c0,0-0.6-4.4-2-4.4c-1.4,0-2.6,0.5-2.3,2.9c0.3,2.5,1.7,5.2,3.5,4.1
				C266.7,216,267,214.8,266.5,213.9C266.5,213.9,266.5,213.9,266.5,213.9z"/>
			<path class="st39" d="M279.2,207.4c0,1.1,0.5,1.9,1.1,1.9c0.6,0,1-0.9,1-1.9c0-1.1-0.5-1.9-1-1.9S279.2,206.3,279.2,207.4z"/>
			<path class="st39" d="M276.9,205.5c1.3-1.1,3.2-1.4,4.8-0.7l0.4-1.4c-1.8-0.8-3.9-0.5-5.4,0.8L276.9,205.5z"/>
			<path class="st40" d="M283.2,241l4.4,117.8h27.1l-8-53.5l-5.2-32.5c0,0-2.5-21.9-8.1-25.8C290.2,244.7,286.8,242.7,283.2,241z"/>
			<path class="st37" d="M265.6,212.1c0,0-0.8-1.5-1.5-1.3c-0.7,0.2-0.9,3.2,0.4,4.4S266.8,214.5,265.6,212.1z"/>
			<path class="st40" d="M261.4,240.4l2.9,118.4h-29c0,0-1.1-93.9,2.1-103.7C240.6,245.4,261.4,240.4,261.4,240.4z"/>
			<polygon class="st3" points="293.7,245.4 281.2,238.9 285.3,297.1 292.1,264.2 289.7,262.7 			"/>
			<polygon class="st3" points="262.8,297.9 261.7,238.9 250.6,243.4 256.7,262.7 255.1,263.7 			"/>
			<polygon class="st41" points="313.8,314.1 354.1,286.4 311.5,282.8 279.2,314.1 			"/>
			<path class="st36" d="M291.4,302.3c0,0-4.4,0.9-6,2.5c-2.1,2-7,5.3-9,5.3s-10.8,0.8-10.8,0.8l-1.5,8.9c0,0,32.7-6.9,34.2-8.4
				s-7.7,1.1-7.7,0.5s11.1-1.4,10.5-3.1c-0.6-1.7-10.2,2.3-11.1,1.5c-0.9-0.8,11.7-2.3,11.7-4.1s-12.5,2.6-12.5,2.6
				s-0.2-0.9,3.1-2.4c3.4-1.5,6.6-2.6,5.9-3.4s-9.4,3.9-10.5,2.8L291.4,302.3z"/>
			<path class="st3" d="M245.4,252.9c3.1,6.1,4.4,12.8,3.8,19.5c-1,11.5-2.6,29.2,0.1,35c2.7,5.8,22.2,0,22.2,0V321
				c0,0-28.3,10.6-36.5,7.1c-8.2-3.5-7.4-33.2-7.4-47.8C227.6,265.6,240.1,242.4,245.4,252.9z"/>
			<path class="st2" d="M245.4,252.9c2.7,5.9,3.9,12.3,3.4,18.6c-0.9,10.7-3.7,34,1.4,37.5c4.9,2.8,16,0,21.2-1.7
				c-5.2,1.3-19.8,4.4-21.7-0.2c-1.6-3.7-1.4-12.5-1.2-16.4c0.6-17,2.9-23-1-33.4C246.9,255.8,246.2,254.3,245.4,252.9z"/>
			<path class="st21" d="M284.5,222l-0.4,2.1c-2.9-0.4-5.5-1.9-7.1-4.2C279.9,222.6,284.5,222,284.5,222z"/>
			<path class="st36" d="M325.7,302c0.6,0.8,1.1,1.7,1.5,2.6c0.9,1.9-1.6,3.8-2,4.3c-1.1,0.9-2.3,1.7-3.6,2.4
				c-0.8,0.5-1.7,0.8-2.6,1c-1.4,0.3-4.7-4.4-4.2-4.9c0.3-0.3,0.7-0.5,1-0.4s3.9,2.7,3.9,2.7s-3.2-3.7-2.9-4.8
				c0.4-1.1,1.1-1,1.3-0.7s4.4,3.8,4.4,3.8s-2.8-4.4-2.5-5.2c0.2-0.7,1.4-1.2,2.6,0.6c0.8,0.9,1.6,1.8,2.6,2.6c0,0-1.6-3.3-1.2-4.4
				C324.4,300.4,325.7,302,325.7,302z"/>
			<path class="st24" d="M259.9,186.2c0,0.1,3.5,12,3.5,11.8c5.2-1.1,12.5-2.3,17.7-3c-0.6-2-1.6-5.2-3.6-6.6
				c-2.7-1.8-7.3-4.7-11.3-4.5C262.9,184.2,261.4,185.4,259.9,186.2z"/>
			<path class="st42" d="M260.4,185.8l3.7,12.1c5.5-1.2,15.3-3.2,20.9-3.9c-0.6-2-1.7-3.9-3-5.7c-1.6-2.1-4.5-3.6-7.1-4.4
				c-2.5-0.8-5.2-1-7.7-0.5c-2.1,0.4-4.1,1.1-6,2.1C260.8,185.6,260.6,185.7,260.4,185.8z"/>
			<path class="st43" d="M257.2,186.8l4.6,11.6c0.1,0,7-1.7,16.7-3.1c-0.5-3-1.3-6.4-3.8-8.6c-2.5-2.1-6-3.1-9.4-2.7
				c-1.5,0.2-2.9,0.7-4.2,1.4C259.7,185.8,258.4,186.2,257.2,186.8z"/>
			<path class="st44" d="M251.6,207.6c2.7-5.5,16.9-10.8,23.7-11.8c-0.2-1.6-0.5-5.7-2-7.4c-5.5-6.3-21.3-3.4-23.7,7
				C249.1,197.6,250.1,205,251.6,207.6z"/>
			<path class="st27" d="M256.5,190.7L256.5,190.7l2.3-0.9c0.1,0,0.1-0.1,0.1-0.2c0,0,0,0,0,0c0-0.1-0.1-0.1-0.2-0.1l-2.3,0.9
				c-0.1,0-0.1,0.1-0.1,0.2c0,0,0,0,0,0C256.3,190.7,256.4,190.8,256.5,190.7z"/>
			<path class="st27" d="M257,191.9L257,191.9l2.1-0.8c0.1,0,0.1-0.1,0.1-0.2c0,0,0,0,0,0c0-0.1-0.2-0.1-0.2-0.1l-2,0.8
				c-0.1,0-0.1,0.1-0.1,0.2c0,0,0,0,0,0C256.8,191.9,256.9,191.9,257,191.9z"/>
			<path class="st27" d="M251.7,193.2L251.7,193.2l2.1-1.1c0.1,0,0.1-0.1,0.1-0.2c0,0,0,0,0,0c-0.1-0.1-0.2-0.1-0.2-0.1l-2.1,1.1
				c-0.1,0-0.1,0.1-0.1,0.2C251.5,193.2,251.6,193.2,251.7,193.2z"/>
			<path class="st27" d="M251.9,194.2L251.9,194.2l2.1-1c0.1,0,0.1-0.1,0.1-0.2c0-0.1-0.2-0.1-0.2-0.1l-2.1,1
				c-0.1,0-0.1,0.1-0.1,0.2c0,0,0,0,0,0C251.7,194.2,251.8,194.2,251.9,194.2z"/>
			<path class="st27" d="M254.6,191.8c0,0.2,0.3,0.4,0.5,0.4c0.3,0,0.4-0.3,0.4-0.5c0-0.2-0.3-0.4-0.5-0.4c0,0,0,0,0,0
				C254.8,191.3,254.6,191.5,254.6,191.8C254.6,191.8,254.6,191.8,254.6,191.8z"/>
			<path class="st45" d="M280.8,191.3c-6.7,1.1-22.3,5.1-28.3,14.2c0,0-2.8,3.8,0.4,4.1c0.2-1.4,0.9-2.7,2-3.6
				c6.6-4.3,17.8-9.4,28.1-7.9c1,0.1,2.4,0.1,2.6,0.5c1.6-0.6,3.1-1.4,4.4-2.5C293.1,193.2,293,189.2,280.8,191.3z"/>
			<path class="st24" d="M290.1,196c1.2-1.2,2.2-2.9,1.1-4c-1.1-1-3.3-1-4.7-1.1c-5.4-0.2-11.4,1.7-16.4,3.5
				c-14.6,5-21.9,14.6-17.1,15.2c-4.4-0.3,1.2-7,4.8-9.8c10.6-8,35-13,34.1-6.4C291.6,194.4,291,195.3,290.1,196z"/>
			<path class="st46" d="M486.9,311.7l53.9-57.6c0,0,3.5-2.4-6.1-7.1c-9.6-4.7-15.7,0-15.7,0s-46.1,63.8-43.8,63.8
				S486.9,311.7,486.9,311.7z"/>
			<path class="st47" d="M471.8,210.4c0,0,15.3,63.3,35,71.3l-13.1,10.1c0,0-15.8-8.1-26.6-26.4S471.8,210.4,471.8,210.4z"/>
			<path class="st8" d="M447.4,484.9l-1.9,12h33c0,0-1-2.9-10.6-4.7c-9.6-1.8-10.7-5.1-10.7-5.1l1.4-7.5l-8.7-1.2L447.4,484.9z"/>
			<polygon class="st48" points="433.5,348 453,411.1 445.9,487.1 458.5,487.1 475.8,406.7 458.5,314.6 			"/>
			<path class="st8" d="M413.3,483.8l-1.3,6.4c0,0,3.3,9.9,8.3,14.5s15.8,4.9,15.8,1s-11.2-16-11.2-20.8S413.3,483.8,413.3,483.8z"
				/>
			<path class="st49" d="M458.5,312.1l-13.5,38c0,0-15.9,51.4-18.8,82.4s0,52.2,0,52.2l-15.9,2.4c0,0-9.2-64.3-5.8-85.9
				s-0.8-74.1-0.8-74.1l6.5-14.9H458.5z"/>
			<polygon class="st50" points="423.9,281.6 403.8,316.6 459,317.5 467,287.2 			"/>
			<path class="st50" d="M471.8,210.4c0,0-33.7-6.4-51.3-4.6c-9.7,0.9-12.6,2.1-12.6,2.1l16,86.1c0,0,40.1,2.4,41.1,1.5
				C465.9,294.6,474.3,226,471.8,210.4z"/>
			<path class="st51" d="M465,295.5c0.9-4.8,8-71,6.7-85.1C474.7,227.7,468.8,280.8,465,295.5z"/>
			<path class="st52" d="M531.4,253.6l-50.4,58.2c0,0-9.3-0.6-7.4-2.4s45.2-62.3,45.2-62.3S516.7,260.1,531.4,253.6z"/>
			<path class="st53" d="M420.1,245c0,0-1.1,11.4,4.8,16.9c5.9,5.5,106.2,7.4,115.8-7.7l-54.9,59c0,0-16,3.5-36.9-1.5
				s-34,1.8-44.3-1.8c-5.8-2.1-11.8-3.5-18-4.1L420.1,245z"/>
			<path class="st50" d="M384.8,257.1c0,0,4.2-35.8,23.1-49.2c0,0,12.6,31.8,6.9,37c-5.7,5.3-14.3,14.9-14.3,14.9
				S399.6,260.4,384.8,257.1z"/>
			<path class="st37" d="M399.2,257.7c0,0,6.5,4.7,1.8,22l-8.4,8c0,0-15.3-18.2-7.9-30.6C384.8,257.1,393.8,252.7,399.2,257.7z"/>
			<path class="st36" d="M411.4,289.3c0,0-7-2.8-8.7-6.2s-0.1-4.5-1.2-5.5s-5.1-0.2-6.2,0.8c-1,1-4.1,2.1-3.5,5.7
				c0.6,3.5-3.2,4.7-3.2,6.3c0.2,2.2,1.1,4.2,2.7,5.9c1.4,1.3,6.5,1.6,10,0.6c3.5-1-4.3-3.1-4.3-3.1s9.3,1.6,10.9,0.1s-8-3.5-8-3.5
				s8.2,1.6,10.4,1.6S411.4,289.3,411.4,289.3z"/>
			<path class="st37" d="M510.5,287c0,0-5.2-2.8-5.2-0.7c0,2.1,2.9,3.5,2.9,3.5s-3.9-2-4.7-0.5c-0.9,1.5,1.7,2.4,1.7,2.4
				s-3-0.5-4,0.5c-1,0.9,1.5,3,1.5,3s-2.7-1-2.7,0s2.6,2.9,5,2.9s5-0.1,5.8-1.7c0.8-1.6,1.5-1.2,2.4-3
				C514.2,291.5,510.5,288,510.5,287z"/>
			<path class="st36" d="M432,206c0,0,4.5,16.4,17,11.4c2-0.8,1.7-17,2.1-21c-0.8-1.6-6.6-14-6.2-13.2l0,0l-1.2-2.5L432,206z"/>
			<path class="st37" d="M444.8,183.2L444.8,183.2l-1.2-2.5l-4.9,10.7c3.1,7.7,8.7,10.5,12.1,11c0.1-2.6,0.1-4.8,0.2-5.9
				C450.3,194.8,444.9,183.3,444.8,183.2L444.8,183.2z"/>
			<path class="st54" d="M430.7,169.7c1.3,0,3-0.1,4.8-0.3l0,0c4.1-0.3,8-0.4,11.6,1.3c-1.7,2.5,0.4,6.1,0.9,9
				c-5.3,1-11.6,1.9-16.7,0.1c-1.5-2.8-2.4-5.7-2.9-8.8C429,170.6,429.8,170.2,430.7,169.7z"/>
			<path class="st24" d="M440.4,155.9c0,0.1,1.5,12.3,1.5,12.2c5.3-0.4,12.7-0.6,18-0.5c-0.3-2.1-0.7-5.4-2.4-7
				c-2.3-2.1-6.4-5.7-10.4-6C443.8,154.3,442.1,155.3,440.4,155.9z"/>
			<path class="st24" d="M441,155.6c0,0.1,1.6,12.6,1.6,12.4c5.6-0.4,15.7-1,21.3-1c-0.3-2.1-1-4.2-2.1-6.1
				c-1.3-2.3-3.9-4.1-6.3-5.4c-2.3-1.2-4.9-1.7-7.6-1.6c-2.1,0.1-4.2,0.6-6.2,1.2C441.5,155.4,441.3,155.5,441,155.6z"/>
			<path class="st25" d="M437.7,156.1l2.6,12.2c0.1,0,7.2-0.7,17-0.7c0-3.1-0.2-6.5-2.4-9c-2.1-2.5-5.4-3.9-8.8-4
				c-1.5,0-3,0.3-4.4,0.8C440.4,155.4,439,155.7,437.7,156.1z"/>
			<path class="st26" d="M428.3,172.8c3.5-5,19-5.2,25.8-5.2c0.1-1.6,0.5-5.7-0.7-7.6c-4.4-7-20.5-6.4-24.6,3.5
				C427.9,165.6,428.1,170.2,428.3,172.8z"/>
			<path class="st27" d="M436.4,159.9L436.4,159.9l2.4-0.6c0.1,0,0.1-0.1,0.1-0.2c0-0.1-0.1-0.1-0.2-0.1c0,0,0,0,0,0l-2.4,0.5
				c-0.1,0-0.2,0.1-0.1,0.2c0,0,0,0,0,0C436.2,159.8,436.3,159.9,436.4,159.9C436.4,159.9,436.4,159.9,436.4,159.9z"/>
			<path class="st27" d="M436.6,161.1L436.6,161.1l2.2-0.5c0.1,0,0.1-0.1,0.1-0.2c0,0,0,0,0,0c0-0.1-0.1-0.1-0.2-0.1c0,0,0,0,0,0
				l-2.2,0.6c-0.1,0-0.1,0.1-0.1,0.2c0,0,0,0,0,0C436.5,161.1,436.5,161.1,436.6,161.1z"/>
			<path class="st27" d="M431.1,161.6L431.1,161.6l2.3-0.8c0.1,0,0.1-0.1,0.1-0.2c0-0.1-0.1-0.1-0.2-0.1c0,0,0,0,0,0l-2.2,0.8
				c-0.1,0-0.1,0.1-0.1,0.2c0,0,0,0,0,0C431,161.6,431.1,161.6,431.1,161.6z"/>
			<path class="st27" d="M431.1,162.7L431.1,162.7l2.3-0.7c0.1,0,0.1-0.1,0.1-0.2c0,0,0,0,0,0c0-0.1-0.1-0.1-0.2-0.1l-2.2,0.7
				c-0.1,0-0.1,0.1-0.1,0.2C431,162.6,431.1,162.6,431.1,162.7z"/>
			<ellipse class="st27" cx="434.8" cy="160.6" rx="0.5" ry="0.4"/>
			<path class="st36" d="M461.3,170.7c0.5,0,1,0.3,1.2,0.7c0.4,0.8,0.7,1.7,0.9,2.5c1.2,5.7,2.8,14.9,2.8,14.9l-2.8,0.1
				c0,0-2.1,5.2-2,8.6s-5.8,1.4-9.2,1.5s-11-2.4-14.3-12.1c-1.4-3.8-2.4-7.8-2.9-11.8c3.8-0.9,7.6-2.9,11.4-3.6
				C451.3,170.6,456.3,170.8,461.3,170.7z"/>
			<path class="st55" d="M446.5,171.5c-0.2,3.3,2.7,8.6,1.1,11.2l-3.1,0.6c0,0-0.7-1.7-1.9-1.6c-1.2,0-1.3,8.6-3.3,8.7
				c-2,0-6.1-7.2-8-10.5c-0.2-0.3-0.4-0.7-0.6-1.2c-0.4-1.5,0.2-3.1,1.6-4C436.4,172.8,440.4,172.3,446.5,171.5z"/>
			<path class="st55" d="M435.4,173.5c-0.3,0.1-0.6,0.2-0.9,0.3C434.8,173.7,435.1,173.6,435.4,173.5z"/>
			<path class="st55" d="M432.3,174.7c-0.2,0.1-0.3,0.2-0.4,0.3C432,174.9,432.1,174.8,432.3,174.7z"/>
			<path class="st55" d="M433.8,174c-0.5,0.2-1,0.4-1.4,0.6C432.9,174.4,433.3,174.2,433.8,174z"/>
			<path class="st55" d="M431,176.1c0,0.1-0.1,0.1-0.1,0.2C430.9,176.2,430.9,176.2,431,176.1z"/>
			<path class="st55" d="M431.3,175.6l-0.2,0.2L431.3,175.6z"/>
			<path class="st55" d="M431.7,175.1c-0.1,0.1-0.2,0.2-0.2,0.2C431.5,175.3,431.6,175.2,431.7,175.1z"/>
			<path class="st55" d="M444.2,171.8l-0.8,0.1L444.2,171.8z"/>
			<path class="st55" d="M437,173l-0.7,0.2L437,173z"/>
			<path class="st55" d="M442.2,172.1l-0.8,0.1L442.2,172.1z"/>
			<path class="st55" d="M438.6,172.7l-0.7,0.2L438.6,172.7z"/>
			<path class="st55" d="M440.4,172.4l-0.8,0.1L440.4,172.4z"/>
			<path class="st37" d="M446.3,171.5c4-0.6,5.6-0.8,15-0.8c1,0,1.2,0.9,1.5,1.6c-3.3,0.2-9.8,0.9-16.1,1.8
				C446.6,173.2,446.4,171.5,446.3,171.5z"/>
			<path class="st55" d="M430.7,176.6l0,0.2L430.7,176.6z"/>
			<path class="st55" d="M444.2,171.8l2.1-0.3l0,0L444.2,171.8z"/>
			<path class="st55" d="M439.6,172.5l-1,0.2L439.6,172.5z"/>
			<path class="st55" d="M430.9,176.3c0,0.1-0.1,0.2-0.1,0.4C430.8,176.5,430.8,176.4,430.9,176.3z"/>
			<path class="st55" d="M430.6,178.3c0-0.2,0-0.3,0-0.5C430.6,178,430.6,178.1,430.6,178.3z"/>
			<path class="st55" d="M441.4,172.2l-1.1,0.2L441.4,172.2z"/>
			<path class="st55" d="M443.5,171.9c-0.4,0-0.8,0.1-1.2,0.2C442.6,172,443.1,172,443.5,171.9z"/>
			<path class="st55" d="M437.9,172.8l-0.9,0.2L437.9,172.8z"/>
			<path class="st55" d="M431.9,175l-0.1,0.1L431.9,175z"/>
			<path class="st55" d="M430.7,176.8c0,0.1-0.1,0.3-0.1,0.4C430.6,177.1,430.6,177,430.7,176.8z"/>
			<path class="st55" d="M431.1,175.8c-0.1,0.1-0.1,0.2-0.2,0.3C431,176,431.1,175.9,431.1,175.8z"/>
			<path class="st55" d="M431.4,175.3c0,0.1-0.1,0.1-0.2,0.2C431.3,175.5,431.4,175.4,431.4,175.3z"/>
			<path class="st55" d="M436.2,173.2l-0.9,0.2L436.2,173.2z"/>
			<path class="st55" d="M430.6,177.3c0,0.2,0,0.3,0,0.5C430.5,177.6,430.5,177.5,430.6,177.3z"/>
			<path class="st55" d="M434.5,173.8l-0.7,0.2L434.5,173.8z"/>
			<path class="st54" d="M446.5,171.5c0,0.9,0.1,1.7,0.2,2.5c-13.7,1.9-15.4,2.8-16.2,4.2C429.8,173.3,439.3,172.4,446.5,171.5z"/>
			<path class="st55" d="M460.1,176l0.3,1.3c0,0-2.6-0.2-4,1.1c-1.4,1.3-1.6,1.5-1.6,1.5S455.5,176.9,460.1,176z"/>
			<path class="st55" d="M458.6,181.4c1.5,0,1.4-2.5-0.1-2.5C457.9,179,457.1,181.5,458.6,181.4z"/>
			<path class="st55" d="M460,192.7c-1.3,0.1-2.5-0.3-3.3-1.3c-0.2-0.3-0.3-0.7-0.4-1c0-0.2-0.3-0.4-0.5-0.3c-0.2,0-0.4,0.2-0.4,0.5
				C455.7,192,457.4,193.1,460,192.7z"/>
			<path class="st36" d="M445.2,178.5c0,0,0.3,5.6-1.1,5.6s-4.8-3-4.3-6.4C440.1,174.3,444.4,174.6,445.2,178.5z"/>
			<path class="st37" d="M444.1,177.9c0,0,0.8,2.2-0.3,3.2s-3.3-1.3-2.1-3.2S443.9,176.6,444.1,177.9z"/>
			<path class="st28" d="M428.3,172.8L428.3,172.8c3.4-5.1,17.8-5.1,24.5-5.2c3.7-0.1,14.9-1.2,14.9,1.7c0,1.1-2.7,2.3-5,2.8
				c-0.2-0.4-0.3-1.2-1.3-1.2c-8.1,0.1-21.9,0.5-29.1,3.9c-1.2,0.8-1.9,2.1-1.7,3.4c-2-0.4-3.3-2.2-2.9-4
				C427.8,173.6,428,173.2,428.3,172.8z"/>
			<path class="st29" d="M428,172.6c4.6-7.4,36.7-8.2,40.5-5.1c1.6,1.3-0.4,3.2-4.1,4.1c1.1-0.3,2-0.9,2.8-1.6
				c3.1-4.5-26.8-2.2-34.2,0.2c-1.7,0.5-3.2,1.4-4.4,2.7l0,0c-0.5,0.6-0.8,1.4-0.8,2.2c0,0.8,0.2,1.6,0.8,2.2
				C426.2,175.8,428,172.6,428,172.6z"/>
			<path class="st56" d="M534.9,201.8h-3.1v-8.5c0-2.5-2.2-4.5-4.9-4.5c-2.7,0-4.9,2-4.9,4.5v8.5h-3.2v-8.5c0-4.1,3.6-7.4,8-7.4
				s8,3.3,8,7.4V201.8z"/>
			<path class="st56" d="M717.2,201.8h-3.1v-8.5c0-2.5-2.2-4.5-4.8-4.5c-2.7,0-4.9,2-4.9,4.5c0,0,0,0,0,0v8.5h-3.1v-8.5
				c0-4.1,3.6-7.4,8-7.4s8,3.3,8,7.4L717.2,201.8z"/>
			<path class="st2" d="M503,206.9v13.8h224.4v-13.8H503z M520.6,217.5h-8c-1.7,0-3.1-1.3-3.1-2.8s1.4-2.8,3.1-2.8h8
				c1.7,0,3.1,1.3,3.1,2.8S522.3,217.5,520.6,217.5L520.6,217.5z M542.6,217.5h-8c-1.7,0-3.1-1.3-3.1-2.8s1.4-2.8,3.1-2.8l0,0h8
				c1.7,0,3.1,1.3,3.1,2.8S544.3,217.5,542.6,217.5z M564.6,217.5h-8c-1.7,0-3.1-1.3-3.1-2.8s1.4-2.8,3.1-2.8h8
				c1.7,0,3.1,1.3,3.1,2.8S566.3,217.5,564.6,217.5z M586.6,217.5h-8c-1.7,0-3.1-1.3-3.1-2.8s1.4-2.8,3.1-2.8h8
				c1.7,0,3.1,1.3,3.1,2.8S588.3,217.5,586.6,217.5z M608.6,217.5h-8c-1.7,0-3.1-1.3-3.1-2.8s1.4-2.8,3.1-2.8h8
				c1.7,0,3.1,1.3,3.1,2.8S610.3,217.5,608.6,217.5L608.6,217.5z M694.9,217.5h-8c-1.7,0-3.1-1.3-3.1-2.8s1.4-2.8,3.1-2.8h8
				c1.7,0,3.1,1.3,3.1,2.8S696.6,217.5,694.9,217.5z M716.9,217.5h-8c-1.7,0-3.1-1.3-3.1-2.8s1.4-2.8,3.1-2.8h8
				c1.7,0,3.1,1.3,3.1,2.8S718.6,217.5,716.9,217.5z"/>
			<rect x="503" y="206.9" class="st3" width="224.4" height="2"/>
			<rect x="492.8" y="199.4" class="st2" width="241.3" height="7.5"/>
			<rect x="494.3" y="220.7" class="st2" width="239.9" height="7.7"/>
			<rect x="494.3" y="220.7" class="st4" width="239.9" height="1.8"/>
			<path class="st57" d="M709.2,192.2c-0.6,0-1.1-0.2-1.5-0.6l-89.2-89.5l-90.2,88c-0.8,0.8-2.1,0.8-2.9,0.1s-0.9-1.9-0.1-2.7
				l93.2-91l92.2,92.5c0.8,0.8,0.7,2-0.1,2.7C710.2,192,709.7,192.2,709.2,192.2z"/>
			<path class="st58" d="M623.2,95.2c0,0-1,2.1-2.1,4l1.4,1.4C623.1,97.7,623.2,95.2,623.2,95.2z"/>
			<path class="st46" d="M618.5,102.1c-1.2-1.1,1.7-26.2,1.7-26.4h-5c0,2.2-4.1,33.7,2.8,33.7c1.6,0,2.7-1.9,3.5-4.3L618.5,102.1z"
				/>
			<polygon class="st59" points="624.7,81.8 609,81.8 606,53.3 627.7,53.3 			"/>
			<polygon class="st60" points="611.5,53.3 606.5,58 606.9,61.5 615.7,53.3 			"/>
			<polygon class="st60" points="622.6,53.3 607.5,67.4 607.9,70.9 626.8,53.3 			"/>
			<polygon class="st60" points="627.1,58.9 608.5,76.3 608.8,79.9 626.6,63.2 			"/>
			<polygon class="st60" points="625.9,70.7 614,81.8 618.2,81.8 625.4,75.1 			"/>
			<rect x="612.4" y="81.8" class="st61" width="8.8" height="2.3"/>
			<path class="st61" d="M612.3,48.6h9.5c1.6,0,2.9,1.2,2.9,2.7v0v2l0,0h-15.3l0,0v-2C609.4,49.8,610.7,48.6,612.3,48.6z"/>
			<rect x="615.6" class="st61" width="3.2" height="48.6"/>
			<polygon class="st62" points="606,53.3 627.7,53.3 624.7,81.8 625.9,54.8 			"/>
		</g>
	</g>
</g>
</svg>
